<mxfile host="app.diagrams.net" modified="2021-11-02T08:17:00.133Z" agent="5.0 (Macintosh; Intel Mac OS X 10_15_7) AppleWebKit/605.1.15 (KHTML, like Gecko) Version/15.1 Safari/605.1.15" etag="hfyKv9sxpR6Zu8KcdmeR" version="15.6.5" type="github">
  <diagram id="C5RBs43oDa-KdzZeNtuy" name="Page-1">
    <mxGraphModel dx="2404" dy="942" grid="1" gridSize="10" guides="1" tooltips="1" connect="1" arrows="1" fold="1" page="1" pageScale="1" pageWidth="827" pageHeight="1169" math="0" shadow="0">
      <root>
        <mxCell id="WIyWlLk6GJQsqaUBKTNV-0" />
        <mxCell id="WIyWlLk6GJQsqaUBKTNV-1" parent="WIyWlLk6GJQsqaUBKTNV-0" />
        <mxCell id="LF6EKqhV0Nr8-d3hsMDu-3" style="edgeStyle=orthogonalEdgeStyle;rounded=0;orthogonalLoop=1;jettySize=auto;html=1;exitX=0.5;exitY=1;exitDx=0;exitDy=0;entryX=0.5;entryY=0;entryDx=0;entryDy=0;fontFamily=Sarabun;fontSource=https%3A%2F%2Ffonts.googleapis.com%2Fcss%3Ffamily%3DSarabun;fontColor=default;strokeColor=default;labelBackgroundColor=default;" edge="1" parent="WIyWlLk6GJQsqaUBKTNV-1" source="WIyWlLk6GJQsqaUBKTNV-3" target="LF6EKqhV0Nr8-d3hsMDu-1">
          <mxGeometry relative="1" as="geometry" />
        </mxCell>
        <mxCell id="LF6EKqhV0Nr8-d3hsMDu-9" style="edgeStyle=orthogonalEdgeStyle;rounded=0;orthogonalLoop=1;jettySize=auto;html=1;exitX=0.5;exitY=1;exitDx=0;exitDy=0;entryX=0.5;entryY=0;entryDx=0;entryDy=0;labelBackgroundColor=default;fontFamily=Sarabun;fontSource=https%3A%2F%2Ffonts.googleapis.com%2Fcss%3Ffamily%3DSarabun;fontColor=default;strokeColor=default;" edge="1" parent="WIyWlLk6GJQsqaUBKTNV-1" source="WIyWlLk6GJQsqaUBKTNV-3" target="LF6EKqhV0Nr8-d3hsMDu-4">
          <mxGeometry relative="1" as="geometry" />
        </mxCell>
        <mxCell id="LF6EKqhV0Nr8-d3hsMDu-10" style="edgeStyle=orthogonalEdgeStyle;rounded=0;orthogonalLoop=1;jettySize=auto;html=1;exitX=0.5;exitY=1;exitDx=0;exitDy=0;labelBackgroundColor=default;fontFamily=Sarabun;fontSource=https%3A%2F%2Ffonts.googleapis.com%2Fcss%3Ffamily%3DSarabun;fontColor=default;strokeColor=default;" edge="1" parent="WIyWlLk6GJQsqaUBKTNV-1" source="WIyWlLk6GJQsqaUBKTNV-3" target="LF6EKqhV0Nr8-d3hsMDu-6">
          <mxGeometry relative="1" as="geometry" />
        </mxCell>
        <mxCell id="LF6EKqhV0Nr8-d3hsMDu-11" style="edgeStyle=orthogonalEdgeStyle;rounded=0;orthogonalLoop=1;jettySize=auto;html=1;exitX=0.5;exitY=1;exitDx=0;exitDy=0;entryX=0.5;entryY=0;entryDx=0;entryDy=0;labelBackgroundColor=default;fontFamily=Sarabun;fontSource=https%3A%2F%2Ffonts.googleapis.com%2Fcss%3Ffamily%3DSarabun;fontColor=default;strokeColor=default;" edge="1" parent="WIyWlLk6GJQsqaUBKTNV-1" source="WIyWlLk6GJQsqaUBKTNV-3" target="LF6EKqhV0Nr8-d3hsMDu-7">
          <mxGeometry relative="1" as="geometry" />
        </mxCell>
        <mxCell id="LF6EKqhV0Nr8-d3hsMDu-12" style="edgeStyle=orthogonalEdgeStyle;rounded=0;orthogonalLoop=1;jettySize=auto;html=1;exitX=0.5;exitY=1;exitDx=0;exitDy=0;labelBackgroundColor=default;fontFamily=Sarabun;fontSource=https%3A%2F%2Ffonts.googleapis.com%2Fcss%3Ffamily%3DSarabun;fontColor=default;strokeColor=default;" edge="1" parent="WIyWlLk6GJQsqaUBKTNV-1" source="WIyWlLk6GJQsqaUBKTNV-3" target="LF6EKqhV0Nr8-d3hsMDu-8">
          <mxGeometry relative="1" as="geometry" />
        </mxCell>
        <mxCell id="WIyWlLk6GJQsqaUBKTNV-3" value="&lt;p style=&quot;line-height: 1.5&quot;&gt;&lt;b&gt;&lt;font data-font-src=&quot;https://fonts.google.com/specimen/Sarabun?query=sarabun#standard-styles&quot;&gt;&lt;span lang=&quot;TH&quot; style=&quot;font-size: 16pt&quot;&gt;ขั้นตอน/ประเภทการปฏิบัติงานด้านวิศวกรรมแหล่งน้ำ&lt;/span&gt;&lt;span lang=&quot;EN-US&quot; style=&quot;font-size: 16pt&quot;&gt;&lt;br&gt;&lt;/span&gt;&lt;/font&gt;&lt;/b&gt;&lt;b&gt;&lt;font data-font-src=&quot;https://fonts.google.com/specimen/Sarabun?query=sarabun#standard-styles&quot;&gt;&lt;span lang=&quot;EN-US&quot; style=&quot;font-size: 16pt&quot;&gt;(Step/Type of Water Resources Engineering Project)&lt;/span&gt;&lt;/font&gt;&lt;/b&gt;&lt;/p&gt;&lt;span style=&quot;font-size: medium&quot;&gt;&lt;/span&gt;" style="rounded=1;whiteSpace=wrap;html=1;fontSize=12;glass=0;strokeWidth=1;shadow=0;fillColor=default;strokeColor=default;fontColor=default;fontFamily=Sarabun;fontSource=https%3A%2F%2Ffonts.googleapis.com%2Fcss%3Ffamily%3DSarabun;" parent="WIyWlLk6GJQsqaUBKTNV-1" vertex="1">
          <mxGeometry x="-295" y="40" width="590" height="100" as="geometry" />
        </mxCell>
        <mxCell id="LF6EKqhV0Nr8-d3hsMDu-22" style="edgeStyle=orthogonalEdgeStyle;rounded=0;orthogonalLoop=1;jettySize=auto;html=1;exitX=0.5;exitY=1;exitDx=0;exitDy=0;entryX=0.5;entryY=0;entryDx=0;entryDy=0;labelBackgroundColor=default;fontFamily=Sarabun;fontSource=https%3A%2F%2Ffonts.googleapis.com%2Fcss%3Ffamily%3DSarabun;fontColor=default;strokeColor=default;" edge="1" parent="WIyWlLk6GJQsqaUBKTNV-1" source="LF6EKqhV0Nr8-d3hsMDu-1" target="LF6EKqhV0Nr8-d3hsMDu-13">
          <mxGeometry relative="1" as="geometry" />
        </mxCell>
        <mxCell id="LF6EKqhV0Nr8-d3hsMDu-23" style="edgeStyle=orthogonalEdgeStyle;rounded=0;orthogonalLoop=1;jettySize=auto;html=1;exitX=0.5;exitY=1;exitDx=0;exitDy=0;entryX=0.5;entryY=0;entryDx=0;entryDy=0;labelBackgroundColor=default;fontFamily=Sarabun;fontSource=https%3A%2F%2Ffonts.googleapis.com%2Fcss%3Ffamily%3DSarabun;fontColor=default;strokeColor=default;" edge="1" parent="WIyWlLk6GJQsqaUBKTNV-1" source="LF6EKqhV0Nr8-d3hsMDu-1" target="LF6EKqhV0Nr8-d3hsMDu-21">
          <mxGeometry relative="1" as="geometry" />
        </mxCell>
        <mxCell id="LF6EKqhV0Nr8-d3hsMDu-1" value="&lt;p class=&quot;MsoNormal&quot; align=&quot;center&quot; style=&quot;margin: 0cm ; font-size: 14pt ; line-height: 1.4&quot;&gt;&lt;font face=&quot;Sarabun&quot; data-font-src=&quot;https://fonts.googleapis.com/css?family=Sarabun&quot;&gt;&lt;span&gt;&lt;span lang=&quot;TH&quot; style=&quot;font-size: 13pt&quot;&gt;การเก็บวิเคราะห์ข้อมูล&lt;/span&gt;&lt;/span&gt;&lt;span&gt;&lt;span lang=&quot;EN-US&quot; style=&quot;font-size: 13pt&quot;&gt;&lt;/span&gt;&lt;/span&gt;&lt;/font&gt;&lt;/p&gt;&lt;p class=&quot;MsoNormal&quot; align=&quot;center&quot; style=&quot;margin: 0cm ; font-size: 14pt ; line-height: 11pt&quot;&gt;&lt;span&gt;&lt;span lang=&quot;EN-US&quot; style=&quot;font-size: 13pt&quot;&gt;&lt;font face=&quot;Sarabun&quot; data-font-src=&quot;https://fonts.googleapis.com/css?family=Sarabun&quot;&gt;(Data collection and analyses)&lt;/font&gt;&lt;font face=&quot;Angsana New, serif&quot;&gt;&lt;/font&gt;&lt;/span&gt;&lt;/span&gt;&lt;/p&gt;" style="rounded=0;whiteSpace=wrap;html=1;fontFamily=TH Sarabun New;fontSource=https%3A%2F%2Ffonts.google.com%2Fspecimen%2FSarabun%3Fquery%3Dsarabun%23standard-styles;fontColor=default;strokeColor=default;fillColor=default;fontStyle=0;labelBackgroundColor=default;" vertex="1" parent="WIyWlLk6GJQsqaUBKTNV-1">
          <mxGeometry x="-760" y="240" width="260" height="60" as="geometry" />
        </mxCell>
        <mxCell id="LF6EKqhV0Nr8-d3hsMDu-43" style="edgeStyle=orthogonalEdgeStyle;rounded=0;orthogonalLoop=1;jettySize=auto;html=1;exitX=0.5;exitY=1;exitDx=0;exitDy=0;labelBackgroundColor=default;fontFamily=Sarabun;fontSource=https%3A%2F%2Ffonts.googleapis.com%2Fcss%3Ffamily%3DSarabun;fontSize=11;fontColor=default;strokeColor=default;" edge="1" parent="WIyWlLk6GJQsqaUBKTNV-1" source="LF6EKqhV0Nr8-d3hsMDu-4" target="LF6EKqhV0Nr8-d3hsMDu-40">
          <mxGeometry relative="1" as="geometry" />
        </mxCell>
        <mxCell id="LF6EKqhV0Nr8-d3hsMDu-4" value="&lt;p class=&quot;MsoNormal&quot; align=&quot;center&quot; style=&quot;margin: 0cm ; font-size: 14pt ; line-height: 1.4&quot;&gt;&lt;span&gt;&lt;span lang=&quot;TH&quot; style=&quot;font-size: 13pt&quot;&gt;การวางแผน&amp;nbsp;&lt;/span&gt;&lt;/span&gt;&lt;span&gt;&lt;span lang=&quot;EN-US&quot; style=&quot;font-size: 13pt&quot;&gt;&lt;/span&gt;&lt;/span&gt;&lt;/p&gt;&lt;p class=&quot;MsoNormal&quot; align=&quot;center&quot; style=&quot;margin: 0cm ; font-size: 14pt ; line-height: 11pt&quot;&gt;&lt;span&gt;&lt;span lang=&quot;EN-US&quot; style=&quot;font-size: 13pt&quot;&gt;(Planning)&lt;/span&gt;&lt;/span&gt;&lt;/p&gt;" style="rounded=0;whiteSpace=wrap;html=1;fontFamily=Sarabun;fontSource=https%3A%2F%2Ffonts.googleapis.com%2Fcss%3Ffamily%3DSarabun;fontColor=default;strokeColor=default;fillColor=default;fontStyle=0;labelBackgroundColor=default;" vertex="1" parent="WIyWlLk6GJQsqaUBKTNV-1">
          <mxGeometry x="-376.25" y="240" width="200" height="60" as="geometry" />
        </mxCell>
        <mxCell id="LF6EKqhV0Nr8-d3hsMDu-63" style="edgeStyle=orthogonalEdgeStyle;rounded=0;orthogonalLoop=1;jettySize=auto;html=1;exitX=0.5;exitY=1;exitDx=0;exitDy=0;entryX=0.5;entryY=0;entryDx=0;entryDy=0;labelBackgroundColor=default;fontFamily=Sarabun;fontSource=https%3A%2F%2Ffonts.googleapis.com%2Fcss%3Ffamily%3DSarabun;fontSize=17;fontColor=default;endArrow=classic;endFill=1;strokeColor=default;fillColor=default;" edge="1" parent="WIyWlLk6GJQsqaUBKTNV-1" source="LF6EKqhV0Nr8-d3hsMDu-6" target="LF6EKqhV0Nr8-d3hsMDu-60">
          <mxGeometry relative="1" as="geometry" />
        </mxCell>
        <mxCell id="LF6EKqhV0Nr8-d3hsMDu-6" value="&lt;p class=&quot;MsoNormal&quot; align=&quot;center&quot; style=&quot;margin: 0cm ; font-size: 14pt ; line-height: 1.4&quot;&gt;&lt;span&gt;&lt;span lang=&quot;TH&quot; style=&quot;font-size: 13pt&quot;&gt;การออกแบบ/ก่อสร้าง&lt;/span&gt;&lt;/span&gt;&lt;span&gt;&lt;span lang=&quot;EN-US&quot; style=&quot;font-size: 13pt&quot;&gt;&lt;/span&gt;&lt;/span&gt;&lt;/p&gt;&lt;p class=&quot;MsoNormal&quot; align=&quot;center&quot; style=&quot;margin: 0cm ; font-size: 14pt ; line-height: 11pt&quot;&gt;&lt;span&gt;&lt;span lang=&quot;EN-US&quot; style=&quot;font-size: 13pt&quot;&gt;(Design and construction)&lt;/span&gt;&lt;/span&gt;&lt;span&gt;&lt;span lang=&quot;EN-US&quot; style=&quot;font-size: 13pt&quot;&gt;&lt;/span&gt;&lt;/span&gt;&lt;/p&gt;" style="rounded=0;whiteSpace=wrap;html=1;fontFamily=Sarabun;fontSource=https%3A%2F%2Ffonts.googleapis.com%2Fcss%3Ffamily%3DSarabun;fontColor=default;strokeColor=default;fillColor=default;fontStyle=0;labelBackgroundColor=default;" vertex="1" parent="WIyWlLk6GJQsqaUBKTNV-1">
          <mxGeometry x="-92.74000000000001" y="240" width="260" height="60" as="geometry" />
        </mxCell>
        <mxCell id="LF6EKqhV0Nr8-d3hsMDu-75" style="edgeStyle=orthogonalEdgeStyle;rounded=0;orthogonalLoop=1;jettySize=auto;html=1;exitX=0.5;exitY=1;exitDx=0;exitDy=0;entryX=0.5;entryY=0;entryDx=0;entryDy=0;labelBackgroundColor=default;fontFamily=Sarabun;fontSource=https%3A%2F%2Ffonts.googleapis.com%2Fcss%3Ffamily%3DSarabun;fontSize=17;fontColor=default;endArrow=classic;endFill=1;strokeColor=default;fillColor=default;" edge="1" parent="WIyWlLk6GJQsqaUBKTNV-1" source="LF6EKqhV0Nr8-d3hsMDu-7" target="LF6EKqhV0Nr8-d3hsMDu-71">
          <mxGeometry relative="1" as="geometry" />
        </mxCell>
        <mxCell id="LF6EKqhV0Nr8-d3hsMDu-7" value="&lt;p class=&quot;MsoNormal&quot; align=&quot;center&quot; style=&quot;margin: 0cm -9.3pt 0.0001pt -7.1pt ; font-size: 14pt ; line-height: 1.4&quot;&gt;&lt;span&gt;&lt;span lang=&quot;TH&quot; style=&quot;font-size: 13pt&quot;&gt;การดำเนินงาน/จัดการ&amp;nbsp;&lt;/span&gt;&lt;/span&gt;&lt;/p&gt;&lt;p class=&quot;MsoNormal&quot; align=&quot;center&quot; style=&quot;margin: 0cm -9.3pt 0.0001pt -7.1pt ; font-size: 14pt ; line-height: 11pt&quot;&gt;&lt;span&gt;&lt;span lang=&quot;EN-US&quot; style=&quot;font-size: 13pt&quot;&gt;(Operation and&lt;/span&gt;&lt;/span&gt;&lt;span&gt;&lt;span lang=&quot;EN-US&quot; style=&quot;font-size: 13pt&quot;&gt;&amp;nbsp;&lt;/span&gt;&lt;/span&gt;&lt;span&gt;&lt;span lang=&quot;EN-US&quot; style=&quot;font-size: 13pt&quot;&gt;management)&lt;/span&gt;&lt;/span&gt;&lt;/p&gt;" style="rounded=0;whiteSpace=wrap;html=1;fontFamily=Sarabun;fontSource=https%3A%2F%2Ffonts.googleapis.com%2Fcss%3Ffamily%3DSarabun;fontColor=default;strokeColor=default;fillColor=default;fontStyle=0;labelBackgroundColor=default;" vertex="1" parent="WIyWlLk6GJQsqaUBKTNV-1">
          <mxGeometry x="221" y="240" width="260" height="60" as="geometry" />
        </mxCell>
        <mxCell id="LF6EKqhV0Nr8-d3hsMDu-84" style="edgeStyle=orthogonalEdgeStyle;rounded=0;orthogonalLoop=1;jettySize=auto;html=1;exitX=0.5;exitY=1;exitDx=0;exitDy=0;entryX=0.5;entryY=0;entryDx=0;entryDy=0;labelBackgroundColor=default;fontFamily=Sarabun;fontSource=https%3A%2F%2Ffonts.googleapis.com%2Fcss%3Ffamily%3DSarabun;fontSize=17;fontColor=default;endArrow=classic;endFill=1;strokeColor=default;fillColor=default;" edge="1" parent="WIyWlLk6GJQsqaUBKTNV-1" source="LF6EKqhV0Nr8-d3hsMDu-8" target="LF6EKqhV0Nr8-d3hsMDu-81">
          <mxGeometry relative="1" as="geometry" />
        </mxCell>
        <mxCell id="LF6EKqhV0Nr8-d3hsMDu-8" value="&lt;p class=&quot;MsoNormal&quot; align=&quot;center&quot; style=&quot;margin: 0cm -5.65pt 0.0001pt -7.1pt ; font-size: 14pt ; line-height: 1.4&quot;&gt;&lt;span&gt;&lt;span lang=&quot;TH&quot; style=&quot;font-size: 13pt&quot;&gt;การประเมินผล&lt;/span&gt;&lt;/span&gt;&lt;/p&gt;&lt;p class=&quot;MsoNormal&quot; align=&quot;center&quot; style=&quot;margin: 0cm -5.65pt 0.0001pt -7.1pt ; font-size: 14pt ; line-height: 11pt&quot;&gt;&lt;span&gt;&lt;span lang=&quot;EN-US&quot; style=&quot;font-size: 13pt&quot;&gt;(Evaluation/assessment)&lt;/span&gt;&lt;/span&gt;&lt;/p&gt;" style="rounded=0;whiteSpace=wrap;html=1;fontFamily=Sarabun;fontSource=https%3A%2F%2Ffonts.googleapis.com%2Fcss%3Ffamily%3DSarabun;fontColor=default;strokeColor=default;fillColor=default;fontStyle=0;labelBackgroundColor=default;" vertex="1" parent="WIyWlLk6GJQsqaUBKTNV-1">
          <mxGeometry x="500.55999999999995" y="240" width="260" height="60" as="geometry" />
        </mxCell>
        <mxCell id="LF6EKqhV0Nr8-d3hsMDu-29" style="edgeStyle=orthogonalEdgeStyle;rounded=0;orthogonalLoop=1;jettySize=auto;html=1;exitX=0.5;exitY=1;exitDx=0;exitDy=0;entryX=0.5;entryY=0;entryDx=0;entryDy=0;labelBackgroundColor=default;fontFamily=Sarabun;fontSource=https%3A%2F%2Ffonts.googleapis.com%2Fcss%3Ffamily%3DSarabun;fontColor=default;strokeColor=default;" edge="1" parent="WIyWlLk6GJQsqaUBKTNV-1" source="LF6EKqhV0Nr8-d3hsMDu-13" target="LF6EKqhV0Nr8-d3hsMDu-18">
          <mxGeometry relative="1" as="geometry">
            <Array as="points">
              <mxPoint x="-730" y="420" />
              <mxPoint x="-730" y="560" />
              <mxPoint x="-630" y="560" />
            </Array>
          </mxGeometry>
        </mxCell>
        <mxCell id="LF6EKqhV0Nr8-d3hsMDu-13" value="&lt;p class=&quot;MsoNormal&quot; align=&quot;center&quot; style=&quot;margin: 0cm ; font-size: 14pt ; font-style: normal ; letter-spacing: normal ; text-indent: 0px ; text-transform: none ; word-spacing: 0px ; text-decoration: none ; text-align: center ; line-height: 1.2&quot;&gt;&lt;span lang=&quot;TH&quot; style=&quot;font-size: 13pt&quot;&gt;อุตุนิยมวิทยา&lt;/span&gt;&lt;/p&gt;&lt;p class=&quot;MsoNormal&quot; align=&quot;center&quot; style=&quot;margin: 0cm ; font-size: 14pt ; font-style: normal ; letter-spacing: normal ; text-indent: 0px ; text-transform: none ; word-spacing: 0px ; text-decoration: none ; text-align: center ; line-height: 11pt&quot;&gt;&lt;span lang=&quot;EN-US&quot; style=&quot;font-size: 13pt&quot;&gt;(Meteorology)&lt;/span&gt;&lt;/p&gt;" style="rounded=0;html=1;labelBackgroundColor=default;fontFamily=Sarabun;fontSource=https%3A%2F%2Ffonts.googleapis.com%2Fcss%3Ffamily%3DSarabun;fontColor=default;strokeColor=default;fillColor=default;fontStyle=0;whiteSpace=wrap;" vertex="1" parent="WIyWlLk6GJQsqaUBKTNV-1">
          <mxGeometry x="-760" y="360" width="120" height="60" as="geometry" />
        </mxCell>
        <mxCell id="LF6EKqhV0Nr8-d3hsMDu-14" value="&lt;p class=&quot;MsoNormal&quot; align=&quot;center&quot; style=&quot;margin: 0cm ; font-size: 14pt ; line-height: 1.2&quot;&gt;&lt;span lang=&quot;TH&quot; style=&quot;font-size: 13pt&quot;&gt;การบริการข้อมูล&lt;/span&gt;&lt;span lang=&quot;EN-US&quot; style=&quot;font-size: 13pt&quot;&gt;&lt;/span&gt;&lt;/p&gt;&lt;p class=&quot;MsoNormal&quot; align=&quot;center&quot; style=&quot;margin: 0cm ; font-size: 14pt ; line-height: 12pt&quot;&gt;&lt;span lang=&quot;TH&quot; style=&quot;font-size: 13pt&quot;&gt;(Data service)&lt;/span&gt;&lt;/p&gt;" style="rounded=0;whiteSpace=wrap;html=1;labelBackgroundColor=default;fontFamily=Sarabun;fontSource=https%3A%2F%2Ffonts.googleapis.com%2Fcss%3Ffamily%3DSarabun;fontColor=default;strokeColor=default;fillColor=default;fontStyle=0" vertex="1" parent="WIyWlLk6GJQsqaUBKTNV-1">
          <mxGeometry x="-552.5" y="890" width="152.5" height="60" as="geometry" />
        </mxCell>
        <mxCell id="LF6EKqhV0Nr8-d3hsMDu-15" value="&lt;p class=&quot;MsoNormal&quot; align=&quot;center&quot; style=&quot;margin: 0cm ; font-size: 14pt ; line-height: 1.2&quot;&gt;&lt;span lang=&quot;TH&quot; style=&quot;font-size: 13pt&quot;&gt;การวิเคราะห์ข้อมูลในเชิงประยุกต์&lt;/span&gt;&lt;/p&gt;&lt;p class=&quot;MsoNormal&quot; align=&quot;center&quot; style=&quot;margin: 0cm ; font-size: 14pt ; line-height: 1.2&quot;&gt;&lt;span style=&quot;font-size: 13pt&quot;&gt;(Applied data analysis)&lt;/span&gt;&lt;/p&gt;" style="rounded=0;whiteSpace=wrap;html=1;labelBackgroundColor=default;fontFamily=Sarabun;fontSource=https%3A%2F%2Ffonts.googleapis.com%2Fcss%3Ffamily%3DSarabun;fontColor=default;strokeColor=default;fillColor=default;fontStyle=0;spacing=2;" vertex="1" parent="WIyWlLk6GJQsqaUBKTNV-1">
          <mxGeometry x="-810" y="890" width="240" height="60" as="geometry" />
        </mxCell>
        <mxCell id="LF6EKqhV0Nr8-d3hsMDu-33" style="edgeStyle=orthogonalEdgeStyle;rounded=0;orthogonalLoop=1;jettySize=auto;html=1;exitX=0.5;exitY=1;exitDx=0;exitDy=0;entryX=0.5;entryY=0;entryDx=0;entryDy=0;labelBackgroundColor=default;fontFamily=Sarabun;fontSource=https%3A%2F%2Ffonts.googleapis.com%2Fcss%3Ffamily%3DSarabun;fontColor=default;strokeColor=default;" edge="1" parent="WIyWlLk6GJQsqaUBKTNV-1" source="LF6EKqhV0Nr8-d3hsMDu-16" target="LF6EKqhV0Nr8-d3hsMDu-15">
          <mxGeometry relative="1" as="geometry" />
        </mxCell>
        <mxCell id="LF6EKqhV0Nr8-d3hsMDu-34" style="edgeStyle=orthogonalEdgeStyle;rounded=0;orthogonalLoop=1;jettySize=auto;html=1;exitX=0.5;exitY=1;exitDx=0;exitDy=0;entryX=0.5;entryY=0;entryDx=0;entryDy=0;labelBackgroundColor=default;fontFamily=Sarabun;fontSource=https%3A%2F%2Ffonts.googleapis.com%2Fcss%3Ffamily%3DSarabun;fontColor=default;strokeColor=default;" edge="1" parent="WIyWlLk6GJQsqaUBKTNV-1" source="LF6EKqhV0Nr8-d3hsMDu-16" target="LF6EKqhV0Nr8-d3hsMDu-14">
          <mxGeometry relative="1" as="geometry" />
        </mxCell>
        <mxCell id="LF6EKqhV0Nr8-d3hsMDu-16" value="&lt;p class=&quot;MsoNormal&quot; align=&quot;center&quot; style=&quot;margin: 0cm ; font-size: 14pt ; line-height: 1.2&quot;&gt;&lt;span lang=&quot;TH&quot; style=&quot;font-size: 13pt&quot;&gt;การจัดเก็บ/สงวนข้อมูล&lt;/span&gt;&lt;/p&gt;&lt;p class=&quot;MsoNormal&quot; align=&quot;center&quot; style=&quot;margin: 0cm ; font-size: 14pt ; line-height: 12pt&quot;&gt;&lt;span lang=&quot;EN-US&quot; style=&quot;font-size: 13pt&quot;&gt;(Data processing)&lt;/span&gt;&lt;/p&gt;" style="rounded=0;whiteSpace=wrap;html=1;labelBackgroundColor=default;fontFamily=Sarabun;fontSource=https%3A%2F%2Ffonts.googleapis.com%2Fcss%3Ffamily%3DSarabun;fontColor=default;strokeColor=default;fillColor=default;fontStyle=0" vertex="1" parent="WIyWlLk6GJQsqaUBKTNV-1">
          <mxGeometry x="-730" y="780" width="200" height="60" as="geometry" />
        </mxCell>
        <mxCell id="LF6EKqhV0Nr8-d3hsMDu-32" style="edgeStyle=orthogonalEdgeStyle;rounded=0;orthogonalLoop=1;jettySize=auto;html=1;exitX=0.5;exitY=1;exitDx=0;exitDy=0;entryX=0.5;entryY=0;entryDx=0;entryDy=0;labelBackgroundColor=default;fontFamily=Sarabun;fontSource=https%3A%2F%2Ffonts.googleapis.com%2Fcss%3Ffamily%3DSarabun;fontColor=default;strokeColor=default;" edge="1" parent="WIyWlLk6GJQsqaUBKTNV-1" source="LF6EKqhV0Nr8-d3hsMDu-17" target="LF6EKqhV0Nr8-d3hsMDu-16">
          <mxGeometry relative="1" as="geometry" />
        </mxCell>
        <mxCell id="LF6EKqhV0Nr8-d3hsMDu-17" value="&lt;p class=&quot;MsoNormal&quot; align=&quot;center&quot; style=&quot;margin: 0cm ; font-size: 14pt ; line-height: 1.2&quot;&gt;&lt;span lang=&quot;TH&quot; style=&quot;font-size: 13pt&quot;&gt;การจัดส่ง/ตรวจสอบข้อมูล&lt;/span&gt;&lt;/p&gt;&lt;p class=&quot;MsoNormal&quot; align=&quot;center&quot; style=&quot;margin: 0cm ; font-size: 14pt ; line-height: 12pt&quot;&gt;&lt;span lang=&quot;EN-US&quot; style=&quot;font-size: 13pt&quot;&gt;(Data transfer and verification)&lt;/span&gt;&lt;/p&gt;" style="rounded=0;whiteSpace=wrap;html=1;labelBackgroundColor=default;fontFamily=Sarabun;fontSource=https%3A%2F%2Ffonts.googleapis.com%2Fcss%3Ffamily%3DSarabun;fontColor=default;strokeColor=default;fillColor=default;fontStyle=0" vertex="1" parent="WIyWlLk6GJQsqaUBKTNV-1">
          <mxGeometry x="-760" y="685" width="260" height="60" as="geometry" />
        </mxCell>
        <mxCell id="LF6EKqhV0Nr8-d3hsMDu-31" style="edgeStyle=orthogonalEdgeStyle;rounded=0;orthogonalLoop=1;jettySize=auto;html=1;exitX=0.5;exitY=1;exitDx=0;exitDy=0;labelBackgroundColor=default;fontFamily=Sarabun;fontSource=https%3A%2F%2Ffonts.googleapis.com%2Fcss%3Ffamily%3DSarabun;fontColor=default;strokeColor=default;" edge="1" parent="WIyWlLk6GJQsqaUBKTNV-1" source="LF6EKqhV0Nr8-d3hsMDu-18" target="LF6EKqhV0Nr8-d3hsMDu-17">
          <mxGeometry relative="1" as="geometry" />
        </mxCell>
        <mxCell id="LF6EKqhV0Nr8-d3hsMDu-18" value="&lt;p class=&quot;MsoNormal&quot; align=&quot;center&quot; style=&quot;margin: 0cm ; font-size: 14pt ; line-height: 1.2&quot;&gt;&lt;span lang=&quot;TH&quot; style=&quot;font-size: 13pt&quot;&gt;การวัด/บันทึกข้อมูล&lt;/span&gt;&lt;/p&gt;&lt;p class=&quot;MsoNormal&quot; align=&quot;center&quot; style=&quot;margin: 0cm ; font-size: 14pt ; line-height: 12pt&quot;&gt;&lt;span lang=&quot;EN-US&quot; style=&quot;font-size: 13pt&quot;&gt;&amp;nbsp;(Data measurement/recording)&lt;/span&gt;&lt;/p&gt;" style="rounded=0;whiteSpace=wrap;html=1;labelBackgroundColor=default;fontFamily=Sarabun;fontSource=https%3A%2F%2Ffonts.googleapis.com%2Fcss%3Ffamily%3DSarabun;fontColor=default;strokeColor=default;fillColor=default;fontStyle=0" vertex="1" parent="WIyWlLk6GJQsqaUBKTNV-1">
          <mxGeometry x="-760" y="590" width="260" height="60" as="geometry" />
        </mxCell>
        <mxCell id="LF6EKqhV0Nr8-d3hsMDu-30" style="edgeStyle=orthogonalEdgeStyle;rounded=0;orthogonalLoop=1;jettySize=auto;html=1;exitX=0.5;exitY=1;exitDx=0;exitDy=0;entryX=0.5;entryY=0;entryDx=0;entryDy=0;labelBackgroundColor=default;fontFamily=Sarabun;fontSource=https%3A%2F%2Ffonts.googleapis.com%2Fcss%3Ffamily%3DSarabun;fontColor=default;strokeColor=default;" edge="1" parent="WIyWlLk6GJQsqaUBKTNV-1" source="LF6EKqhV0Nr8-d3hsMDu-19" target="LF6EKqhV0Nr8-d3hsMDu-18">
          <mxGeometry relative="1" as="geometry">
            <Array as="points">
              <mxPoint x="-500" y="540" />
              <mxPoint x="-560" y="540" />
              <mxPoint x="-560" y="560" />
              <mxPoint x="-630" y="560" />
            </Array>
          </mxGeometry>
        </mxCell>
        <mxCell id="LF6EKqhV0Nr8-d3hsMDu-19" value="&lt;p class=&quot;MsoNormal&quot; align=&quot;center&quot; style=&quot;margin: 0cm ; font-size: 14pt ; line-height: 1.2&quot;&gt;&lt;span lang=&quot;TH&quot; style=&quot;font-size: 13pt&quot;&gt;น้ำใต้ดิน&lt;/span&gt;&lt;/p&gt;&lt;p class=&quot;MsoNormal&quot; align=&quot;center&quot; style=&quot;margin: 0cm ; font-size: 14pt ; line-height: 12pt&quot;&gt;&lt;span lang=&quot;EN-US&quot; style=&quot;font-size: 13pt&quot;&gt;(Groundwater&lt;/span&gt;&lt;span lang=&quot;EN-US&quot;&gt;)&lt;/span&gt;&lt;/p&gt;" style="rounded=0;whiteSpace=wrap;html=1;labelBackgroundColor=default;fontFamily=Sarabun;fontSource=https%3A%2F%2Ffonts.googleapis.com%2Fcss%3Ffamily%3DSarabun;fontColor=default;strokeColor=default;fillColor=default;fontStyle=0" vertex="1" parent="WIyWlLk6GJQsqaUBKTNV-1">
          <mxGeometry x="-560" y="460" width="120" height="60" as="geometry" />
        </mxCell>
        <mxCell id="LF6EKqhV0Nr8-d3hsMDu-26" style="edgeStyle=orthogonalEdgeStyle;rounded=0;orthogonalLoop=1;jettySize=auto;html=1;exitX=0.5;exitY=1;exitDx=0;exitDy=0;entryX=0.5;entryY=0;entryDx=0;entryDy=0;labelBackgroundColor=default;fontFamily=Sarabun;fontSource=https%3A%2F%2Ffonts.googleapis.com%2Fcss%3Ffamily%3DSarabun;fontColor=default;strokeColor=default;" edge="1" parent="WIyWlLk6GJQsqaUBKTNV-1" source="LF6EKqhV0Nr8-d3hsMDu-20" target="LF6EKqhV0Nr8-d3hsMDu-18">
          <mxGeometry relative="1" as="geometry">
            <Array as="points">
              <mxPoint x="-640" y="540" />
              <mxPoint x="-560" y="540" />
              <mxPoint x="-560" y="560" />
              <mxPoint x="-630" y="560" />
            </Array>
          </mxGeometry>
        </mxCell>
        <mxCell id="LF6EKqhV0Nr8-d3hsMDu-20" value="&lt;p class=&quot;MsoNormal&quot; align=&quot;center&quot; style=&quot;margin: 0cm ; font-size: 14pt ; line-height: 1.2&quot;&gt;&lt;span lang=&quot;TH&quot; style=&quot;font-size: 13pt&quot;&gt;น้ำผิวดิน&lt;/span&gt;&lt;/p&gt;&lt;p class=&quot;MsoNormal&quot; align=&quot;center&quot; style=&quot;margin: 0cm ; font-size: 14pt ; line-height: 12pt&quot;&gt;&lt;span lang=&quot;TH&quot; style=&quot;font-size: 13pt&quot;&gt;(&lt;/span&gt;&lt;span lang=&quot;EN-US&quot; style=&quot;font-size: 13pt&quot;&gt;Surface water)&lt;/span&gt;&lt;/p&gt;" style="rounded=0;whiteSpace=wrap;html=1;labelBackgroundColor=default;fontFamily=Sarabun;fontSource=https%3A%2F%2Ffonts.googleapis.com%2Fcss%3Ffamily%3DSarabun;fontColor=default;strokeColor=default;fillColor=default;fontStyle=0" vertex="1" parent="WIyWlLk6GJQsqaUBKTNV-1">
          <mxGeometry x="-700" y="460" width="120" height="60" as="geometry" />
        </mxCell>
        <mxCell id="LF6EKqhV0Nr8-d3hsMDu-24" style="edgeStyle=orthogonalEdgeStyle;rounded=0;orthogonalLoop=1;jettySize=auto;html=1;exitX=0.5;exitY=1;exitDx=0;exitDy=0;entryX=0.5;entryY=0;entryDx=0;entryDy=0;labelBackgroundColor=default;fontFamily=Sarabun;fontSource=https%3A%2F%2Ffonts.googleapis.com%2Fcss%3Ffamily%3DSarabun;fontColor=default;strokeColor=default;" edge="1" parent="WIyWlLk6GJQsqaUBKTNV-1" source="LF6EKqhV0Nr8-d3hsMDu-21" target="LF6EKqhV0Nr8-d3hsMDu-19">
          <mxGeometry relative="1" as="geometry" />
        </mxCell>
        <mxCell id="LF6EKqhV0Nr8-d3hsMDu-25" style="edgeStyle=orthogonalEdgeStyle;rounded=0;orthogonalLoop=1;jettySize=auto;html=1;exitX=0.5;exitY=1;exitDx=0;exitDy=0;entryX=0.5;entryY=0;entryDx=0;entryDy=0;labelBackgroundColor=default;fontFamily=Sarabun;fontSource=https%3A%2F%2Ffonts.googleapis.com%2Fcss%3Ffamily%3DSarabun;fontColor=default;strokeColor=default;" edge="1" parent="WIyWlLk6GJQsqaUBKTNV-1" source="LF6EKqhV0Nr8-d3hsMDu-21" target="LF6EKqhV0Nr8-d3hsMDu-20">
          <mxGeometry relative="1" as="geometry" />
        </mxCell>
        <mxCell id="LF6EKqhV0Nr8-d3hsMDu-21" value="&lt;p class=&quot;MsoNormal&quot; align=&quot;center&quot; style=&quot;margin: 0cm ; font-size: 14pt ; line-height: 1.2&quot;&gt;&lt;span lang=&quot;TH&quot; style=&quot;font-size: 13pt&quot;&gt;อุทกวิทยา&lt;/span&gt;&lt;/p&gt;&lt;p class=&quot;MsoNormal&quot; align=&quot;center&quot; style=&quot;margin: 0cm ; font-size: 14pt ; line-height: 11pt&quot;&gt;&lt;span lang=&quot;EN-US&quot; style=&quot;font-size: 13pt&quot;&gt;(Hydrology)&lt;/span&gt;&lt;/p&gt;" style="rounded=0;whiteSpace=wrap;html=1;labelBackgroundColor=default;fontFamily=Sarabun;fontSource=https%3A%2F%2Ffonts.googleapis.com%2Fcss%3Ffamily%3DSarabun;fontColor=default;strokeColor=default;fillColor=default;fontStyle=0" vertex="1" parent="WIyWlLk6GJQsqaUBKTNV-1">
          <mxGeometry x="-620" y="360" width="120" height="60" as="geometry" />
        </mxCell>
        <mxCell id="LF6EKqhV0Nr8-d3hsMDu-37" value="&lt;span lang=&quot;TH&quot; style=&quot;font-size: 13pt&quot;&gt;การศึกษาวางแผนระดับโครงการ&lt;br&gt;&lt;/span&gt;&lt;span lang=&quot;EN-US&quot; style=&quot;font-size: 13pt&quot;&gt;(Project plan)&lt;/span&gt;&lt;span style=&quot;font-size: medium&quot;&gt;&lt;/span&gt;" style="rounded=0;whiteSpace=wrap;html=1;labelBackgroundColor=default;fontFamily=Sarabun;fontSource=https%3A%2F%2Ffonts.googleapis.com%2Fcss%3Ffamily%3DSarabun;fontColor=default;strokeColor=default;fillColor=default;fontStyle=0;verticalAlign=top;" vertex="1" parent="WIyWlLk6GJQsqaUBKTNV-1">
          <mxGeometry x="-416.25" y="610" width="280" height="270" as="geometry" />
        </mxCell>
        <mxCell id="LF6EKqhV0Nr8-d3hsMDu-46" style="edgeStyle=orthogonalEdgeStyle;rounded=0;orthogonalLoop=1;jettySize=auto;html=1;exitX=0.5;exitY=1;exitDx=0;exitDy=0;entryX=0.5;entryY=0;entryDx=0;entryDy=0;labelBackgroundColor=default;fontFamily=Sarabun;fontSource=https%3A%2F%2Ffonts.googleapis.com%2Fcss%3Ffamily%3DSarabun;fontSize=11;fontColor=default;strokeColor=default;" edge="1" parent="WIyWlLk6GJQsqaUBKTNV-1" source="LF6EKqhV0Nr8-d3hsMDu-38" target="LF6EKqhV0Nr8-d3hsMDu-37">
          <mxGeometry relative="1" as="geometry" />
        </mxCell>
        <mxCell id="LF6EKqhV0Nr8-d3hsMDu-38" value="&lt;p class=&quot;MsoNormal&quot; align=&quot;center&quot; style=&quot;margin: 0cm ; font-size: 14pt ; line-height: 1.2&quot;&gt;&lt;span lang=&quot;TH&quot; style=&quot;font-size: 13pt&quot;&gt;การศึกษาแผนแม่บทสำหรับการพัฒนา&lt;/span&gt;&lt;/p&gt;&lt;p class=&quot;MsoNormal&quot; align=&quot;center&quot; style=&quot;margin: 0cm ; font-size: 14pt ; line-height: 1.2&quot;&gt;&lt;span lang=&quot;EN-US&quot; style=&quot;font-size: 13pt&quot;&gt;(Master plan/basin plan)&lt;/span&gt;&lt;/p&gt;" style="rounded=0;whiteSpace=wrap;html=1;labelBackgroundColor=default;fontFamily=Sarabun;fontSource=https%3A%2F%2Ffonts.googleapis.com%2Fcss%3Ffamily%3DSarabun;fontColor=default;strokeColor=default;fillColor=default;fontStyle=0" vertex="1" parent="WIyWlLk6GJQsqaUBKTNV-1">
          <mxGeometry x="-415" y="518" width="277.5" height="60" as="geometry" />
        </mxCell>
        <mxCell id="LF6EKqhV0Nr8-d3hsMDu-45" style="edgeStyle=orthogonalEdgeStyle;rounded=0;orthogonalLoop=1;jettySize=auto;html=1;exitX=0.5;exitY=1;exitDx=0;exitDy=0;entryX=0.5;entryY=0;entryDx=0;entryDy=0;labelBackgroundColor=default;fontFamily=Sarabun;fontSource=https%3A%2F%2Ffonts.googleapis.com%2Fcss%3Ffamily%3DSarabun;fontSize=11;fontColor=default;strokeColor=default;fillColor=default;" edge="1" parent="WIyWlLk6GJQsqaUBKTNV-1" source="LF6EKqhV0Nr8-d3hsMDu-39" target="LF6EKqhV0Nr8-d3hsMDu-38">
          <mxGeometry relative="1" as="geometry" />
        </mxCell>
        <mxCell id="LF6EKqhV0Nr8-d3hsMDu-39" value="&lt;p class=&quot;MsoNormal&quot; align=&quot;center&quot; style=&quot;margin: 0cm ; font-size: 14pt ; line-height: 1.2&quot;&gt;&lt;span lang=&quot;TH&quot; style=&quot;font-size: 13pt&quot;&gt;การศึกษาศักยภาพในระดับภูมิภาคหรือลุ่มน้ำ&lt;/span&gt;&lt;/p&gt;&lt;p class=&quot;MsoNormal&quot; align=&quot;center&quot; style=&quot;margin: 0cm ; font-size: 14pt ; line-height: 1.2&quot;&gt;&lt;span lang=&quot;EN-US&quot; style=&quot;font-size: 13pt&quot;&gt;(Regional/ river basin planning)&lt;/span&gt;&lt;/p&gt;" style="rounded=0;whiteSpace=wrap;html=1;labelBackgroundColor=default;fontFamily=Sarabun;fontSource=https%3A%2F%2Ffonts.googleapis.com%2Fcss%3Ffamily%3DSarabun;fontColor=default;strokeColor=default;fillColor=default;fontStyle=0" vertex="1" parent="WIyWlLk6GJQsqaUBKTNV-1">
          <mxGeometry x="-432.5" y="418" width="312.5" height="60" as="geometry" />
        </mxCell>
        <mxCell id="LF6EKqhV0Nr8-d3hsMDu-44" style="edgeStyle=orthogonalEdgeStyle;rounded=0;orthogonalLoop=1;jettySize=auto;html=1;exitX=0.5;exitY=1;exitDx=0;exitDy=0;entryX=0.5;entryY=0;entryDx=0;entryDy=0;labelBackgroundColor=default;fontFamily=Sarabun;fontSource=https%3A%2F%2Ffonts.googleapis.com%2Fcss%3Ffamily%3DSarabun;fontSize=11;fontColor=default;strokeColor=default;fillColor=default;" edge="1" parent="WIyWlLk6GJQsqaUBKTNV-1" source="LF6EKqhV0Nr8-d3hsMDu-40" target="LF6EKqhV0Nr8-d3hsMDu-39">
          <mxGeometry relative="1" as="geometry" />
        </mxCell>
        <mxCell id="LF6EKqhV0Nr8-d3hsMDu-40" value="&lt;p class=&quot;MsoNormal&quot; align=&quot;center&quot; style=&quot;margin: 0cm ; font-size: 14pt ; line-height: 1.2&quot;&gt;&lt;span lang=&quot;TH&quot; style=&quot;font-size: 13pt&quot;&gt;การศึกษาปัญหาในระดับภูมิภาคหรือประเทศ&lt;/span&gt;&lt;/p&gt;&lt;p class=&quot;MsoNormal&quot; align=&quot;center&quot; style=&quot;margin: 0cm ; font-size: 14pt ; line-height: 1.2&quot;&gt;&lt;span lang=&quot;EN-US&quot; style=&quot;font-size: 13pt&quot;&gt;(Framework planning)&lt;/span&gt;&lt;/p&gt;" style="rounded=0;whiteSpace=wrap;html=1;labelBackgroundColor=default;fontFamily=Sarabun;fontSource=https%3A%2F%2Ffonts.googleapis.com%2Fcss%3Ffamily%3DSarabun;fontColor=default;strokeColor=default;fillColor=default;fontStyle=0" vertex="1" parent="WIyWlLk6GJQsqaUBKTNV-1">
          <mxGeometry x="-433.125" y="333" width="313.75" height="60" as="geometry" />
        </mxCell>
        <mxCell id="LF6EKqhV0Nr8-d3hsMDu-48" style="edgeStyle=orthogonalEdgeStyle;rounded=0;orthogonalLoop=1;jettySize=auto;html=1;exitX=0.5;exitY=1;exitDx=0;exitDy=0;entryX=0.5;entryY=0;entryDx=0;entryDy=0;labelBackgroundColor=default;fontFamily=Sarabun;fontSource=https%3A%2F%2Ffonts.googleapis.com%2Fcss%3Ffamily%3DSarabun;fontSize=11;fontColor=default;strokeColor=default;endArrow=none;endFill=0;" edge="1" parent="WIyWlLk6GJQsqaUBKTNV-1" source="LF6EKqhV0Nr8-d3hsMDu-35" target="LF6EKqhV0Nr8-d3hsMDu-41">
          <mxGeometry relative="1" as="geometry" />
        </mxCell>
        <mxCell id="LF6EKqhV0Nr8-d3hsMDu-35" value="&lt;p class=&quot;MsoNormal&quot; align=&quot;center&quot; style=&quot;margin: 0cm ; font-size: 14pt ; line-height: 13pt&quot;&gt;&lt;span lang=&quot;TH&quot; style=&quot;font-size: 13pt&quot;&gt;การศึกษาความเป็นไปได้เบื้องต้น&amp;nbsp;&lt;/span&gt;&lt;/p&gt;&lt;p class=&quot;MsoNormal&quot; align=&quot;center&quot; style=&quot;margin: 0cm ; font-size: 14pt ; line-height: 13pt&quot;&gt;&lt;span lang=&quot;EN-US&quot; style=&quot;font-size: 13pt&quot;&gt;(Preliminary study)&lt;/span&gt;&lt;/p&gt;" style="rounded=0;whiteSpace=wrap;html=1;labelBackgroundColor=default;fontFamily=Sarabun;fontSource=https%3A%2F%2Ffonts.googleapis.com%2Fcss%3Ffamily%3DSarabun;fontColor=default;strokeColor=default;fillColor=default;fontStyle=0;dashed=1;dashPattern=1 1;" vertex="1" parent="WIyWlLk6GJQsqaUBKTNV-1">
          <mxGeometry x="-391.25" y="735" width="230" height="60" as="geometry" />
        </mxCell>
        <mxCell id="LF6EKqhV0Nr8-d3hsMDu-47" style="edgeStyle=orthogonalEdgeStyle;rounded=0;orthogonalLoop=1;jettySize=auto;html=1;exitX=0.5;exitY=1;exitDx=0;exitDy=0;entryX=0.5;entryY=0;entryDx=0;entryDy=0;labelBackgroundColor=default;fontFamily=Sarabun;fontSource=https%3A%2F%2Ffonts.googleapis.com%2Fcss%3Ffamily%3DSarabun;fontSize=11;fontColor=default;strokeColor=default;endArrow=none;endFill=0;" edge="1" parent="WIyWlLk6GJQsqaUBKTNV-1" source="LF6EKqhV0Nr8-d3hsMDu-36" target="LF6EKqhV0Nr8-d3hsMDu-35">
          <mxGeometry relative="1" as="geometry" />
        </mxCell>
        <mxCell id="LF6EKqhV0Nr8-d3hsMDu-36" value="&lt;p class=&quot;MsoNormal&quot; align=&quot;center&quot; style=&quot;margin: 0cm 0cm 0cm 2.25pt; font-size: 14pt; font-style: normal; letter-spacing: normal; text-indent: 0px; text-transform: none; word-spacing: 0px; text-decoration: none; text-align: center; line-height: 12pt;&quot;&gt;&lt;span lang=&quot;TH&quot; style=&quot;font-size: 13pt;&quot;&gt;การศึกษาเริ่มต้น&lt;/span&gt;&lt;span lang=&quot;EN-US&quot; style=&quot;font-size: 13pt;&quot;&gt;&lt;/span&gt;&lt;/p&gt;&lt;p class=&quot;MsoNormal&quot; align=&quot;center&quot; style=&quot;margin: 0cm 0cm 0cm 2.25pt; font-size: 14pt; font-style: normal; letter-spacing: normal; text-indent: 0px; text-transform: none; word-spacing: 0px; text-decoration: none; text-align: center; line-height: 12pt;&quot;&gt;&lt;span lang=&quot;EN-US&quot; style=&quot;font-size: 13pt;&quot;&gt;(Desk study)&lt;/span&gt;&lt;/p&gt;" style="rounded=0;whiteSpace=wrap;html=1;labelBackgroundColor=default;fontFamily=Sarabun;fontSource=https%3A%2F%2Ffonts.googleapis.com%2Fcss%3Ffamily%3DSarabun;fontColor=default;strokeColor=default;fillColor=default;fontStyle=0;dashed=1;dashPattern=1 1;" vertex="1" parent="WIyWlLk6GJQsqaUBKTNV-1">
          <mxGeometry x="-341.25" y="670" width="130" height="50" as="geometry" />
        </mxCell>
        <mxCell id="LF6EKqhV0Nr8-d3hsMDu-53" style="edgeStyle=orthogonalEdgeStyle;rounded=0;orthogonalLoop=1;jettySize=auto;html=1;exitX=1;exitY=0.5;exitDx=0;exitDy=0;labelBackgroundColor=default;fontFamily=Sarabun;fontSource=https%3A%2F%2Ffonts.googleapis.com%2Fcss%3Ffamily%3DSarabun;fontSize=17;fontColor=default;endArrow=classic;endFill=1;strokeColor=default;" edge="1" parent="WIyWlLk6GJQsqaUBKTNV-1" source="LF6EKqhV0Nr8-d3hsMDu-41" target="LF6EKqhV0Nr8-d3hsMDu-50">
          <mxGeometry relative="1" as="geometry">
            <Array as="points">
              <mxPoint x="-130" y="840" />
              <mxPoint x="-130" y="840" />
            </Array>
          </mxGeometry>
        </mxCell>
        <mxCell id="LF6EKqhV0Nr8-d3hsMDu-54" style="edgeStyle=orthogonalEdgeStyle;rounded=0;orthogonalLoop=1;jettySize=auto;html=1;exitX=1;exitY=0.5;exitDx=0;exitDy=0;entryX=0.5;entryY=0;entryDx=0;entryDy=0;labelBackgroundColor=default;fontFamily=Sarabun;fontSource=https%3A%2F%2Ffonts.googleapis.com%2Fcss%3Ffamily%3DSarabun;fontSize=17;fontColor=default;endArrow=classic;endFill=1;strokeColor=default;" edge="1" parent="WIyWlLk6GJQsqaUBKTNV-1">
          <mxGeometry relative="1" as="geometry">
            <mxPoint x="-165.25" y="840" as="sourcePoint" />
            <mxPoint x="-239" y="975" as="targetPoint" />
            <Array as="points">
              <mxPoint x="-124" y="840" />
              <mxPoint x="-124" y="922" />
              <mxPoint x="-239" y="922" />
            </Array>
          </mxGeometry>
        </mxCell>
        <mxCell id="LF6EKqhV0Nr8-d3hsMDu-41" value="&lt;p class=&quot;MsoNormal&quot; align=&quot;center&quot; style=&quot;margin: 0cm ; font-size: 14pt ; line-height: 12pt&quot;&gt;&lt;span lang=&quot;TH&quot; style=&quot;font-size: 13pt&quot;&gt;การศึกษาความเหมาะสม&lt;/span&gt;&lt;/p&gt;&lt;p class=&quot;MsoNormal&quot; align=&quot;center&quot; style=&quot;margin: 0cm ; font-size: 14pt ; line-height: 12pt&quot;&gt;&lt;span lang=&quot;EN-US&quot; style=&quot;font-size: 13pt&quot;&gt;(Feasibility study)&lt;/span&gt;&lt;/p&gt;" style="rounded=0;whiteSpace=wrap;html=1;labelBackgroundColor=default;fontFamily=Sarabun;fontSource=https%3A%2F%2Ffonts.googleapis.com%2Fcss%3Ffamily%3DSarabun;fontColor=default;strokeColor=default;fillColor=default;fontStyle=0;dashed=1;dashPattern=1 1;" vertex="1" parent="WIyWlLk6GJQsqaUBKTNV-1">
          <mxGeometry x="-371.25" y="810" width="190" height="60" as="geometry" />
        </mxCell>
        <mxCell id="LF6EKqhV0Nr8-d3hsMDu-50" value="&lt;p class=&quot;MsoNormal&quot; style=&quot;margin: 0cm ; font-size: 14pt&quot;&gt;&lt;/p&gt;&lt;ul style=&quot;font-size: 17px ; line-height: 1.3&quot;&gt;&lt;li&gt;&lt;span lang=&quot;TH&quot;&gt;ลักษณะธรรมชาติ&lt;br&gt;&lt;/span&gt;&lt;span lang=&quot;EN-US&quot;&gt;(Physical existing)&lt;/span&gt;&lt;br&gt;&lt;/li&gt;&lt;li&gt;&lt;span lang=&quot;TH&quot; style=&quot;line-height: 1.2&quot;&gt;วิศวกรรม/วิชาการ&lt;br&gt;&lt;/span&gt;&lt;span lang=&quot;EN-US&quot;&gt;(Engineering/technical)&lt;/span&gt;&lt;br&gt;&lt;/li&gt;&lt;li&gt;&lt;span lang=&quot;TH&quot;&gt;สังคม (&lt;/span&gt;&lt;span lang=&quot;EN-US&quot;&gt;Social)&lt;/span&gt;&lt;br&gt;&lt;/li&gt;&lt;li&gt;&lt;span lang=&quot;TH&quot;&gt;เศรษฐกิจ (&lt;/span&gt;&lt;span lang=&quot;EN-US&quot;&gt;Economic)&lt;/span&gt;&lt;br&gt;&lt;/li&gt;&lt;li&gt;&lt;span lang=&quot;TH&quot;&gt;การเงิน (&lt;/span&gt;&lt;span lang=&quot;EN-US&quot;&gt;Financial)&lt;/span&gt;&lt;br&gt;&lt;/li&gt;&lt;li&gt;&lt;span lang=&quot;TH&quot;&gt;สถาบัน (&lt;/span&gt;&lt;span lang=&quot;EN-US&quot;&gt;Institutional)&lt;/span&gt;&lt;br&gt;&lt;/li&gt;&lt;li&gt;&lt;span lang=&quot;TH&quot;&gt;การเมือง (&lt;/span&gt;&lt;span lang=&quot;EN-US&quot;&gt;Political)&lt;/span&gt;&lt;br&gt;&lt;/li&gt;&lt;/ul&gt;&lt;p&gt;&lt;/p&gt;" style="rounded=0;whiteSpace=wrap;html=1;labelBackgroundColor=none;fontFamily=Sarabun;fontSource=https%3A%2F%2Ffonts.googleapis.com%2Fcss%3Ffamily%3DSarabun;fontSize=11;fontColor=default;strokeColor=default;fillColor=default;align=left;verticalAlign=top;spacingTop=-9;" vertex="1" parent="WIyWlLk6GJQsqaUBKTNV-1">
          <mxGeometry x="-97" y="742" width="230" height="230" as="geometry" />
        </mxCell>
        <mxCell id="LF6EKqhV0Nr8-d3hsMDu-55" style="edgeStyle=orthogonalEdgeStyle;rounded=0;orthogonalLoop=1;jettySize=auto;html=1;exitX=0;exitY=0.5;exitDx=0;exitDy=0;labelBackgroundColor=default;fontFamily=Sarabun;fontSource=https%3A%2F%2Ffonts.googleapis.com%2Fcss%3Ffamily%3DSarabun;fontSize=17;fontColor=default;endArrow=classic;endFill=1;strokeColor=default;" edge="1" parent="WIyWlLk6GJQsqaUBKTNV-1" source="LF6EKqhV0Nr8-d3hsMDu-51" target="LF6EKqhV0Nr8-d3hsMDu-52">
          <mxGeometry relative="1" as="geometry" />
        </mxCell>
        <mxCell id="LF6EKqhV0Nr8-d3hsMDu-51" value="&lt;p class=&quot;MsoNormal&quot; align=&quot;center&quot; style=&quot;margin: 0cm ; font-size: 14pt ; line-height: 1.2&quot;&gt;&lt;span lang=&quot;TH&quot; style=&quot;font-size: 13pt&quot;&gt;การศึกษาผลกระทบ&lt;br&gt;&lt;/span&gt;&lt;span lang=&quot;EN-US&quot; style=&quot;font-size: 13pt&quot;&gt;(Impact study)&lt;/span&gt;&lt;/p&gt;" style="rounded=0;whiteSpace=wrap;html=1;labelBackgroundColor=default;fontFamily=Sarabun;fontSource=https%3A%2F%2Ffonts.googleapis.com%2Fcss%3Ffamily%3DSarabun;fontColor=default;strokeColor=default;fillColor=default;fontStyle=0" vertex="1" parent="WIyWlLk6GJQsqaUBKTNV-1">
          <mxGeometry x="-290" y="975" width="170" height="65" as="geometry" />
        </mxCell>
        <mxCell id="LF6EKqhV0Nr8-d3hsMDu-52" value="&lt;p class=&quot;MsoNormal&quot; align=&quot;center&quot; style=&quot;margin: 0cm ; font-size: 14pt ; line-height: 1.2&quot;&gt;&lt;span lang=&quot;TH&quot; style=&quot;font-size: 13pt&quot;&gt;การพิจารณาตัดสินใจ&lt;/span&gt;&lt;span lang=&quot;EN-US&quot; style=&quot;font-size: 13pt&quot;&gt;&lt;/span&gt;&lt;/p&gt;&lt;p class=&quot;MsoNormal&quot; align=&quot;center&quot; style=&quot;margin: 0cm ; font-size: 14pt ; line-height: 12pt&quot;&gt;&lt;span lang=&quot;EN-US&quot; style=&quot;font-size: 13pt&quot;&gt;&amp;nbsp;(Decision making process)&lt;/span&gt;&lt;/p&gt;" style="rounded=0;whiteSpace=wrap;html=1;labelBackgroundColor=default;fontFamily=Sarabun;fontSource=https%3A%2F%2Ffonts.googleapis.com%2Fcss%3Ffamily%3DSarabun;fontColor=default;strokeColor=default;fillColor=default;fontStyle=0" vertex="1" parent="WIyWlLk6GJQsqaUBKTNV-1">
          <mxGeometry x="-540" y="975" width="205" height="65" as="geometry" />
        </mxCell>
        <mxCell id="LF6EKqhV0Nr8-d3hsMDu-64" style="edgeStyle=orthogonalEdgeStyle;rounded=0;orthogonalLoop=1;jettySize=auto;html=1;exitX=0.5;exitY=1;exitDx=0;exitDy=0;entryX=0.5;entryY=0;entryDx=0;entryDy=0;labelBackgroundColor=default;fontFamily=Sarabun;fontSource=https%3A%2F%2Ffonts.googleapis.com%2Fcss%3Ffamily%3DSarabun;fontSize=17;fontColor=default;endArrow=classic;endFill=1;strokeColor=default;fillColor=default;" edge="1" parent="WIyWlLk6GJQsqaUBKTNV-1" source="LF6EKqhV0Nr8-d3hsMDu-56" target="LF6EKqhV0Nr8-d3hsMDu-62">
          <mxGeometry relative="1" as="geometry" />
        </mxCell>
        <mxCell id="LF6EKqhV0Nr8-d3hsMDu-56" value="&lt;p class=&quot;MsoNormal&quot; align=&quot;center&quot; style=&quot;margin: 0cm ; font-size: 14pt ; line-height: 1.2&quot;&gt;&lt;span lang=&quot;TH&quot; style=&quot;font-size: 13pt&quot;&gt;การออกแบบด้านชลศาสตร์&lt;/span&gt;&lt;span lang=&quot;EN-US&quot; style=&quot;font-size: 13pt&quot;&gt;&amp;nbsp;&lt;/span&gt;&lt;/p&gt;&lt;p class=&quot;MsoNormal&quot; align=&quot;center&quot; style=&quot;margin: 0cm ; font-size: 14pt ; line-height: 12pt&quot;&gt;&lt;span lang=&quot;EN-US&quot; style=&quot;font-size: 13pt&quot;&gt;(Hydraulic design)&lt;/span&gt;&lt;/p&gt;" style="rounded=0;whiteSpace=wrap;html=1;labelBackgroundColor=default;fontFamily=Sarabun;fontSource=https%3A%2F%2Ffonts.googleapis.com%2Fcss%3Ffamily%3DSarabun;fontColor=default;strokeColor=default;fillColor=default;fontStyle=0" vertex="1" parent="WIyWlLk6GJQsqaUBKTNV-1">
          <mxGeometry x="-91.49" y="495" width="257.5" height="60" as="geometry" />
        </mxCell>
        <mxCell id="LF6EKqhV0Nr8-d3hsMDu-57" style="edgeStyle=orthogonalEdgeStyle;rounded=0;orthogonalLoop=1;jettySize=auto;html=1;exitX=0.5;exitY=1;exitDx=0;exitDy=0;entryX=0.5;entryY=0;entryDx=0;entryDy=0;labelBackgroundColor=default;fontFamily=Sarabun;fontSource=https%3A%2F%2Ffonts.googleapis.com%2Fcss%3Ffamily%3DSarabun;fontSize=11;fontColor=default;strokeColor=default;fillColor=default;fontStyle=0" edge="1" parent="WIyWlLk6GJQsqaUBKTNV-1" source="LF6EKqhV0Nr8-d3hsMDu-58" target="LF6EKqhV0Nr8-d3hsMDu-56">
          <mxGeometry relative="1" as="geometry" />
        </mxCell>
        <mxCell id="LF6EKqhV0Nr8-d3hsMDu-58" value="&lt;p class=&quot;MsoNormal&quot; align=&quot;center&quot; style=&quot;margin: 0cm ; font-size: 14pt ; line-height: 1.2&quot;&gt;&lt;span lang=&quot;TH&quot; style=&quot;font-size: 13pt&quot;&gt;การออกแบบด้านอุทกวิทยา&lt;/span&gt;&lt;span lang=&quot;EN-US&quot; style=&quot;font-size: 13pt&quot;&gt;&lt;/span&gt;&lt;/p&gt;&lt;p class=&quot;MsoNormal&quot; align=&quot;center&quot; style=&quot;margin: 0cm ; font-size: 14pt ; line-height: 12pt&quot;&gt;&lt;span lang=&quot;EN-US&quot; style=&quot;font-size: 13pt&quot;&gt;(Hydrologic design)&lt;/span&gt;&lt;/p&gt;" style="rounded=0;whiteSpace=wrap;html=1;labelBackgroundColor=default;fontFamily=Sarabun;fontSource=https%3A%2F%2Ffonts.googleapis.com%2Fcss%3Ffamily%3DSarabun;fontColor=default;strokeColor=default;fillColor=default;fontStyle=0" vertex="1" parent="WIyWlLk6GJQsqaUBKTNV-1">
          <mxGeometry x="-87.115" y="410" width="248.75" height="60" as="geometry" />
        </mxCell>
        <mxCell id="LF6EKqhV0Nr8-d3hsMDu-59" style="edgeStyle=orthogonalEdgeStyle;rounded=0;orthogonalLoop=1;jettySize=auto;html=1;exitX=0.5;exitY=1;exitDx=0;exitDy=0;entryX=0.5;entryY=0;entryDx=0;entryDy=0;labelBackgroundColor=default;fontFamily=Sarabun;fontSource=https%3A%2F%2Ffonts.googleapis.com%2Fcss%3Ffamily%3DSarabun;fontSize=11;fontColor=default;strokeColor=default;fillColor=default;fontStyle=0" edge="1" parent="WIyWlLk6GJQsqaUBKTNV-1" source="LF6EKqhV0Nr8-d3hsMDu-60" target="LF6EKqhV0Nr8-d3hsMDu-58">
          <mxGeometry relative="1" as="geometry" />
        </mxCell>
        <mxCell id="LF6EKqhV0Nr8-d3hsMDu-60" value="&lt;p class=&quot;MsoNormal&quot; align=&quot;center&quot; style=&quot;margin: 0cm ; font-size: 14pt ; line-height: 1.2&quot;&gt;&lt;span lang=&quot;TH&quot; style=&quot;font-size: 13pt&quot;&gt;การสำรวจภูมิประเทศและธรณีวิทยา&lt;/span&gt;&lt;span lang=&quot;EN-US&quot; style=&quot;font-size: 13pt&quot;&gt;&lt;/span&gt;&lt;/p&gt;&lt;p class=&quot;MsoNormal&quot; align=&quot;center&quot; style=&quot;margin: 0cm ; font-size: 14pt ; line-height: 12pt&quot;&gt;&lt;span lang=&quot;EN-US&quot; style=&quot;font-size: 13pt&quot;&gt;(Topographic/geologic survey)&lt;/span&gt;&lt;/p&gt;" style="rounded=0;whiteSpace=wrap;html=1;labelBackgroundColor=default;fontFamily=Sarabun;fontSource=https%3A%2F%2Ffonts.googleapis.com%2Fcss%3Ffamily%3DSarabun;fontColor=default;strokeColor=default;fillColor=default;fontStyle=0" vertex="1" parent="WIyWlLk6GJQsqaUBKTNV-1">
          <mxGeometry x="-103.99000000000001" y="325" width="282.5" height="60" as="geometry" />
        </mxCell>
        <mxCell id="LF6EKqhV0Nr8-d3hsMDu-61" value="&lt;p class=&quot;MsoNormal&quot; align=&quot;center&quot; style=&quot;margin: 0cm ; font-size: 14pt ; line-height: 0.96&quot;&gt;&lt;span lang=&quot;TH&quot; style=&quot;font-size: 13pt&quot;&gt;การก่อสร้าง&amp;nbsp;&lt;/span&gt;&lt;/p&gt;&lt;p class=&quot;MsoNormal&quot; align=&quot;center&quot; style=&quot;margin: 0cm ; font-size: 14pt ; line-height: 0.96&quot;&gt;&lt;span lang=&quot;EN-US&quot; style=&quot;font-size: 13pt&quot;&gt;(Construction)&lt;/span&gt;&lt;/p&gt;" style="rounded=0;whiteSpace=wrap;html=1;labelBackgroundColor=default;fontFamily=Sarabun;fontSource=https%3A%2F%2Ffonts.googleapis.com%2Fcss%3Ffamily%3DSarabun;fontColor=default;strokeColor=default;fillColor=default;fontStyle=0" vertex="1" parent="WIyWlLk6GJQsqaUBKTNV-1">
          <mxGeometry x="-58.675" y="670" width="191.87" height="50" as="geometry" />
        </mxCell>
        <mxCell id="LF6EKqhV0Nr8-d3hsMDu-65" style="edgeStyle=orthogonalEdgeStyle;rounded=0;orthogonalLoop=1;jettySize=auto;html=1;exitX=0.5;exitY=1;exitDx=0;exitDy=0;entryX=0.5;entryY=0;entryDx=0;entryDy=0;labelBackgroundColor=default;fontFamily=Sarabun;fontSource=https%3A%2F%2Ffonts.googleapis.com%2Fcss%3Ffamily%3DSarabun;fontSize=17;fontColor=default;endArrow=classic;endFill=1;strokeColor=default;fillColor=default;" edge="1" parent="WIyWlLk6GJQsqaUBKTNV-1" source="LF6EKqhV0Nr8-d3hsMDu-62" target="LF6EKqhV0Nr8-d3hsMDu-61">
          <mxGeometry relative="1" as="geometry" />
        </mxCell>
        <mxCell id="LF6EKqhV0Nr8-d3hsMDu-62" value="&lt;p class=&quot;MsoNormal&quot; align=&quot;center&quot; style=&quot;margin: 0cm ; font-size: 14pt ; line-height: 1.2&quot;&gt;&lt;span lang=&quot;TH&quot; style=&quot;font-size: 13pt&quot;&gt;การออกแบบด้านโครงสร้าง&lt;/span&gt;&lt;span lang=&quot;EN-US&quot; style=&quot;font-size: 13pt&quot;&gt;&amp;nbsp;&lt;/span&gt;&lt;/p&gt;&lt;p class=&quot;MsoNormal&quot; align=&quot;center&quot; style=&quot;margin: 0cm ; font-size: 14pt ; line-height: 12pt&quot;&gt;&lt;span lang=&quot;EN-US&quot; style=&quot;font-size: 13pt&quot;&gt;(Structural design)&lt;/span&gt;&lt;/p&gt;" style="rounded=0;whiteSpace=wrap;html=1;labelBackgroundColor=default;fontFamily=Sarabun;fontSource=https%3A%2F%2Ffonts.googleapis.com%2Fcss%3Ffamily%3DSarabun;fontColor=default;strokeColor=default;fillColor=default;fontStyle=0" vertex="1" parent="WIyWlLk6GJQsqaUBKTNV-1">
          <mxGeometry x="-87.115" y="580" width="248.75" height="60" as="geometry" />
        </mxCell>
        <mxCell id="LF6EKqhV0Nr8-d3hsMDu-66" style="edgeStyle=orthogonalEdgeStyle;rounded=0;orthogonalLoop=1;jettySize=auto;html=1;exitX=0.5;exitY=1;exitDx=0;exitDy=0;entryX=0.5;entryY=0;entryDx=0;entryDy=0;labelBackgroundColor=default;fontFamily=Sarabun;fontSource=https%3A%2F%2Ffonts.googleapis.com%2Fcss%3Ffamily%3DSarabun;fontSize=17;fontColor=default;endArrow=classic;endFill=1;strokeColor=default;fillColor=default;" edge="1" parent="WIyWlLk6GJQsqaUBKTNV-1" source="LF6EKqhV0Nr8-d3hsMDu-67" target="LF6EKqhV0Nr8-d3hsMDu-74">
          <mxGeometry relative="1" as="geometry" />
        </mxCell>
        <mxCell id="LF6EKqhV0Nr8-d3hsMDu-67" value="&lt;p class=&quot;MsoNormal&quot; align=&quot;center&quot; style=&quot;margin: 0cm; font-size: 14pt;&quot;&gt;&lt;span lang=&quot;TH&quot; style=&quot;font-size: 13pt;&quot;&gt;การศึกษาเพื่อปรับปรุงประสิทธิภาพ&lt;/span&gt;&lt;/p&gt;&lt;p class=&quot;MsoNormal&quot; align=&quot;center&quot; style=&quot;margin: 0cm; font-size: 14pt;&quot;&gt;&lt;span lang=&quot;EN-US&quot; style=&quot;font-size: 13pt;&quot;&gt;( Efficiency Improvement)&lt;/span&gt;&lt;/p&gt;" style="rounded=0;whiteSpace=wrap;html=1;labelBackgroundColor=default;fontFamily=Sarabun;fontSource=https%3A%2F%2Ffonts.googleapis.com%2Fcss%3Ffamily%3DSarabun;fontColor=default;strokeColor=default;fillColor=default;fontStyle=0" vertex="1" parent="WIyWlLk6GJQsqaUBKTNV-1">
          <mxGeometry x="212.25" y="507" width="277.5" height="60" as="geometry" />
        </mxCell>
        <mxCell id="LF6EKqhV0Nr8-d3hsMDu-68" style="edgeStyle=orthogonalEdgeStyle;rounded=0;orthogonalLoop=1;jettySize=auto;html=1;exitX=0.5;exitY=1;exitDx=0;exitDy=0;entryX=0.5;entryY=0;entryDx=0;entryDy=0;labelBackgroundColor=default;fontFamily=Sarabun;fontSource=https%3A%2F%2Ffonts.googleapis.com%2Fcss%3Ffamily%3DSarabun;fontSize=11;fontColor=default;strokeColor=default;fillColor=default;fontStyle=0" edge="1" parent="WIyWlLk6GJQsqaUBKTNV-1" source="LF6EKqhV0Nr8-d3hsMDu-69" target="LF6EKqhV0Nr8-d3hsMDu-67">
          <mxGeometry relative="1" as="geometry" />
        </mxCell>
        <mxCell id="LF6EKqhV0Nr8-d3hsMDu-69" value="&lt;p class=&quot;MsoNormal&quot; align=&quot;center&quot; style=&quot;margin: 0cm ; font-size: 14pt ; line-height: 13pt&quot;&gt;&lt;span lang=&quot;TH&quot; style=&quot;font-size: 13pt&quot;&gt;การเพิ่มผลผลิต&lt;/span&gt;&lt;span lang=&quot;EN-US&quot; style=&quot;font-size: 13pt&quot;&gt;&amp;nbsp;&lt;/span&gt;&lt;/p&gt;&lt;p class=&quot;MsoNormal&quot; align=&quot;center&quot; style=&quot;margin: 0cm ; font-size: 14pt ; line-height: 13pt&quot;&gt;&lt;span lang=&quot;EN-US&quot; style=&quot;font-size: 13pt&quot;&gt;(Incresing Product)&lt;/span&gt;&lt;/p&gt;" style="rounded=0;whiteSpace=wrap;html=1;labelBackgroundColor=default;fontFamily=Sarabun;fontSource=https%3A%2F%2Ffonts.googleapis.com%2Fcss%3Ffamily%3DSarabun;fontColor=default;strokeColor=default;fillColor=default;fontStyle=0" vertex="1" parent="WIyWlLk6GJQsqaUBKTNV-1">
          <mxGeometry x="252.25" y="418" width="197.5" height="60" as="geometry" />
        </mxCell>
        <mxCell id="LF6EKqhV0Nr8-d3hsMDu-70" style="edgeStyle=orthogonalEdgeStyle;rounded=0;orthogonalLoop=1;jettySize=auto;html=1;exitX=0.5;exitY=1;exitDx=0;exitDy=0;entryX=0.5;entryY=0;entryDx=0;entryDy=0;labelBackgroundColor=default;fontFamily=Sarabun;fontSource=https%3A%2F%2Ffonts.googleapis.com%2Fcss%3Ffamily%3DSarabun;fontSize=11;fontColor=default;strokeColor=default;fillColor=default;fontStyle=0" edge="1" parent="WIyWlLk6GJQsqaUBKTNV-1" source="LF6EKqhV0Nr8-d3hsMDu-71" target="LF6EKqhV0Nr8-d3hsMDu-69">
          <mxGeometry relative="1" as="geometry" />
        </mxCell>
        <mxCell id="LF6EKqhV0Nr8-d3hsMDu-71" value="&lt;p class=&quot;MsoNormal&quot; align=&quot;center&quot; style=&quot;margin: 0cm ; font-size: 14pt&quot;&gt;&lt;span lang=&quot;TH&quot; style=&quot;font-size: 13pt&quot;&gt;การบริหารดำเนินงานโครงการ&lt;/span&gt;&lt;/p&gt;&lt;p class=&quot;MsoNormal&quot; align=&quot;center&quot; style=&quot;margin: 0cm ; font-size: 14pt&quot;&gt;&lt;span lang=&quot;EN-US&quot; style=&quot;font-size: 13pt&quot;&gt;(Operational Managemnet)&lt;/span&gt;&lt;/p&gt;" style="rounded=0;whiteSpace=wrap;html=1;labelBackgroundColor=default;fontFamily=Sarabun;fontSource=https%3A%2F%2Ffonts.googleapis.com%2Fcss%3Ffamily%3DSarabun;fontColor=default;strokeColor=default;fillColor=default;fontStyle=0" vertex="1" parent="WIyWlLk6GJQsqaUBKTNV-1">
          <mxGeometry x="217.875" y="329" width="266.25" height="60" as="geometry" />
        </mxCell>
        <mxCell id="LF6EKqhV0Nr8-d3hsMDu-72" value="&lt;p class=&quot;MsoNormal&quot; align=&quot;center&quot; style=&quot;margin: 0cm ; font-size: 14pt ; line-height: 1.2&quot;&gt;&lt;span lang=&quot;TH&quot; style=&quot;font-size: 13pt&quot;&gt;การจัดสรรทรัพยากร&lt;/span&gt;&lt;span lang=&quot;EN-US&quot; style=&quot;font-size: 13pt&quot;&gt;&amp;nbsp;&lt;/span&gt;&lt;/p&gt;&lt;p class=&quot;MsoNormal&quot; align=&quot;center&quot; style=&quot;margin: 0cm ; font-size: 14pt ; line-height: 14pt&quot;&gt;&lt;span lang=&quot;EN-US&quot; style=&quot;font-size: 13pt&quot;&gt;(Resources Allocation)&lt;/span&gt;&lt;/p&gt;" style="rounded=0;whiteSpace=wrap;html=1;labelBackgroundColor=default;fontFamily=Sarabun;fontSource=https%3A%2F%2Ffonts.googleapis.com%2Fcss%3Ffamily%3DSarabun;fontColor=default;strokeColor=default;fillColor=default;fontStyle=0" vertex="1" parent="WIyWlLk6GJQsqaUBKTNV-1">
          <mxGeometry x="239.75" y="685" width="222.5" height="60" as="geometry" />
        </mxCell>
        <mxCell id="LF6EKqhV0Nr8-d3hsMDu-73" style="edgeStyle=orthogonalEdgeStyle;rounded=0;orthogonalLoop=1;jettySize=auto;html=1;exitX=0.5;exitY=1;exitDx=0;exitDy=0;entryX=0.5;entryY=0;entryDx=0;entryDy=0;labelBackgroundColor=default;fontFamily=Sarabun;fontSource=https%3A%2F%2Ffonts.googleapis.com%2Fcss%3Ffamily%3DSarabun;fontSize=17;fontColor=default;endArrow=classic;endFill=1;strokeColor=default;fillColor=default;" edge="1" parent="WIyWlLk6GJQsqaUBKTNV-1" source="LF6EKqhV0Nr8-d3hsMDu-74" target="LF6EKqhV0Nr8-d3hsMDu-72">
          <mxGeometry relative="1" as="geometry" />
        </mxCell>
        <mxCell id="LF6EKqhV0Nr8-d3hsMDu-129" value="" style="edgeStyle=none;rounded=0;jumpStyle=sharp;jumpSize=9;orthogonalLoop=1;jettySize=auto;html=1;dashed=1;labelBackgroundColor=default;fontFamily=Sarabun;fontSource=https%3A%2F%2Ffonts.googleapis.com%2Fcss%3Ffamily%3DSarabun;fontSize=17;fontColor=default;endArrow=classic;endFill=1;strokeColor=default;fillColor=default;" edge="1" parent="WIyWlLk6GJQsqaUBKTNV-1" source="LF6EKqhV0Nr8-d3hsMDu-74" target="LF6EKqhV0Nr8-d3hsMDu-72">
          <mxGeometry relative="1" as="geometry" />
        </mxCell>
        <mxCell id="LF6EKqhV0Nr8-d3hsMDu-74" value="&lt;p class=&quot;MsoNormal&quot; align=&quot;center&quot; style=&quot;margin: 0cm ; font-size: 14pt ; line-height: 1.2&quot;&gt;&lt;span lang=&quot;TH&quot; style=&quot;font-size: 13pt&quot;&gt;การลดผลกระทบที่เสียหาย&lt;/span&gt;&lt;span lang=&quot;EN-US&quot; style=&quot;font-size: 13pt&quot;&gt;&amp;nbsp;&lt;/span&gt;&lt;/p&gt;&lt;p class=&quot;MsoNormal&quot; align=&quot;center&quot; style=&quot;margin: 0cm ; font-size: 14pt&quot;&gt;&lt;span lang=&quot;EN-US&quot; style=&quot;font-size: 13pt&quot;&gt;(Damage Reduction)&lt;/span&gt;&lt;/p&gt;" style="rounded=0;whiteSpace=wrap;html=1;labelBackgroundColor=default;fontFamily=Sarabun;fontSource=https%3A%2F%2Ffonts.googleapis.com%2Fcss%3Ffamily%3DSarabun;fontColor=default;strokeColor=default;fillColor=default;fontStyle=0" vertex="1" parent="WIyWlLk6GJQsqaUBKTNV-1">
          <mxGeometry x="234.75" y="596" width="232.5" height="60" as="geometry" />
        </mxCell>
        <mxCell id="LF6EKqhV0Nr8-d3hsMDu-76" style="edgeStyle=orthogonalEdgeStyle;rounded=0;orthogonalLoop=1;jettySize=auto;html=1;exitX=0.5;exitY=1;exitDx=0;exitDy=0;entryX=0.5;entryY=0;entryDx=0;entryDy=0;labelBackgroundColor=default;fontFamily=Sarabun;fontSource=https%3A%2F%2Ffonts.googleapis.com%2Fcss%3Ffamily%3DSarabun;fontSize=17;fontColor=default;endArrow=classic;endFill=1;strokeColor=default;fillColor=default;" edge="1" parent="WIyWlLk6GJQsqaUBKTNV-1" source="LF6EKqhV0Nr8-d3hsMDu-77" target="LF6EKqhV0Nr8-d3hsMDu-82">
          <mxGeometry relative="1" as="geometry" />
        </mxCell>
        <mxCell id="LF6EKqhV0Nr8-d3hsMDu-77" value="&lt;p class=&quot;MsoNormal&quot; align=&quot;center&quot; style=&quot;margin: 0cm ; font-size: 14pt ; line-height: 1.2&quot;&gt;&lt;span lang=&quot;TH&quot; style=&quot;font-size: 13pt&quot;&gt;การเมือง&lt;/span&gt;&lt;span lang=&quot;EN-US&quot; style=&quot;font-size: 13pt&quot;&gt;&amp;nbsp;&lt;/span&gt;&lt;/p&gt;&lt;p class=&quot;MsoNormal&quot; align=&quot;center&quot; style=&quot;margin: 0cm ; font-size: 14pt ; line-height: 12pt&quot;&gt;&lt;span lang=&quot;EN-US&quot; style=&quot;font-size: 13pt&quot;&gt;(Politic)&lt;/span&gt;&lt;/p&gt;" style="rounded=0;whiteSpace=wrap;html=1;labelBackgroundColor=default;fontFamily=Sarabun;fontSource=https%3A%2F%2Ffonts.googleapis.com%2Fcss%3Ffamily%3DSarabun;fontColor=default;strokeColor=default;fillColor=default;fontStyle=0" vertex="1" parent="WIyWlLk6GJQsqaUBKTNV-1">
          <mxGeometry x="542.0899999999999" y="518" width="176.94" height="60" as="geometry" />
        </mxCell>
        <mxCell id="LF6EKqhV0Nr8-d3hsMDu-78" style="edgeStyle=orthogonalEdgeStyle;rounded=0;orthogonalLoop=1;jettySize=auto;html=1;exitX=0.5;exitY=1;exitDx=0;exitDy=0;entryX=0.5;entryY=0;entryDx=0;entryDy=0;labelBackgroundColor=default;fontFamily=Sarabun;fontSource=https%3A%2F%2Ffonts.googleapis.com%2Fcss%3Ffamily%3DSarabun;fontSize=11;fontColor=default;strokeColor=default;fillColor=default;fontStyle=0" edge="1" parent="WIyWlLk6GJQsqaUBKTNV-1" source="LF6EKqhV0Nr8-d3hsMDu-79" target="LF6EKqhV0Nr8-d3hsMDu-77">
          <mxGeometry relative="1" as="geometry" />
        </mxCell>
        <mxCell id="LF6EKqhV0Nr8-d3hsMDu-79" value="&lt;p class=&quot;MsoNormal&quot; align=&quot;center&quot; style=&quot;margin: 0cm ; font-size: 14pt ; line-height: 1.2&quot;&gt;&lt;span lang=&quot;TH&quot; style=&quot;font-size: 13pt&quot;&gt;เศรษฐกิจ-สังคม&lt;/span&gt;&lt;span lang=&quot;EN-US&quot; style=&quot;font-size: 13pt&quot;&gt;&amp;nbsp;&lt;/span&gt;&lt;/p&gt;&lt;p class=&quot;MsoNormal&quot; align=&quot;center&quot; style=&quot;margin: 0cm ; font-size: 14pt ; line-height: 12pt&quot;&gt;&lt;span lang=&quot;EN-US&quot; style=&quot;font-size: 13pt&quot;&gt;(Socio-economic)&lt;/span&gt;&lt;/p&gt;" style="rounded=0;whiteSpace=wrap;html=1;labelBackgroundColor=default;fontFamily=Sarabun;fontSource=https%3A%2F%2Ffonts.googleapis.com%2Fcss%3Ffamily%3DSarabun;fontColor=default;strokeColor=default;fillColor=default;fontStyle=0" vertex="1" parent="WIyWlLk6GJQsqaUBKTNV-1">
          <mxGeometry x="536.4649999999999" y="425" width="188.19" height="60" as="geometry" />
        </mxCell>
        <mxCell id="LF6EKqhV0Nr8-d3hsMDu-80" style="edgeStyle=orthogonalEdgeStyle;rounded=0;orthogonalLoop=1;jettySize=auto;html=1;exitX=0.5;exitY=1;exitDx=0;exitDy=0;entryX=0.5;entryY=0;entryDx=0;entryDy=0;labelBackgroundColor=default;fontFamily=Sarabun;fontSource=https%3A%2F%2Ffonts.googleapis.com%2Fcss%3Ffamily%3DSarabun;fontSize=11;fontColor=default;strokeColor=default;fillColor=default;fontStyle=0" edge="1" parent="WIyWlLk6GJQsqaUBKTNV-1" source="LF6EKqhV0Nr8-d3hsMDu-81" target="LF6EKqhV0Nr8-d3hsMDu-79">
          <mxGeometry relative="1" as="geometry" />
        </mxCell>
        <mxCell id="LF6EKqhV0Nr8-d3hsMDu-81" value="&lt;p class=&quot;MsoNormal&quot; align=&quot;center&quot; style=&quot;margin: 0cm ; font-size: 14pt ; line-height: 12pt&quot;&gt;&lt;span lang=&quot;TH&quot; style=&quot;font-size: 13pt&quot;&gt;ผลผลิต&lt;/span&gt;&lt;span lang=&quot;EN-US&quot; style=&quot;font-size: 13pt&quot;&gt;&amp;nbsp;&lt;/span&gt;&lt;/p&gt;&lt;p class=&quot;MsoNormal&quot; align=&quot;center&quot; style=&quot;margin: 0cm ; font-size: 14pt ; line-height: 12pt&quot;&gt;&lt;span lang=&quot;EN-US&quot; style=&quot;font-size: 13pt&quot;&gt;(Product)&lt;/span&gt;&lt;/p&gt;" style="rounded=0;whiteSpace=wrap;html=1;labelBackgroundColor=default;fontFamily=Sarabun;fontSource=https%3A%2F%2Ffonts.googleapis.com%2Fcss%3Ffamily%3DSarabun;fontColor=default;strokeColor=default;fillColor=default;fontStyle=0" vertex="1" parent="WIyWlLk6GJQsqaUBKTNV-1">
          <mxGeometry x="540.8399999999999" y="333" width="179.44" height="60" as="geometry" />
        </mxCell>
        <mxCell id="LF6EKqhV0Nr8-d3hsMDu-82" value="&lt;p class=&quot;MsoNormal&quot; align=&quot;center&quot; style=&quot;margin: 0cm ; font-size: 14pt ; line-height: 1.2&quot;&gt;&lt;span lang=&quot;TH&quot; style=&quot;font-size: 13pt&quot;&gt;สภาวะแวดล้อม&lt;/span&gt;&lt;span lang=&quot;EN-US&quot; style=&quot;font-size: 13pt&quot;&gt;&amp;nbsp;&lt;/span&gt;&lt;/p&gt;&lt;p class=&quot;MsoNormal&quot; align=&quot;center&quot; style=&quot;margin: 0cm ; font-size: 14pt ; line-height: 12pt&quot;&gt;&lt;span lang=&quot;EN-US&quot; style=&quot;font-size: 13pt&quot;&gt;(Environment)&lt;/span&gt;&lt;/p&gt;" style="rounded=0;whiteSpace=wrap;html=1;labelBackgroundColor=default;fontFamily=Sarabun;fontSource=https%3A%2F%2Ffonts.googleapis.com%2Fcss%3Ffamily%3DSarabun;fontColor=default;strokeColor=default;fillColor=default;fontStyle=0" vertex="1" parent="WIyWlLk6GJQsqaUBKTNV-1">
          <mxGeometry x="531.4649999999999" y="610" width="198.19" height="60" as="geometry" />
        </mxCell>
        <mxCell id="LF6EKqhV0Nr8-d3hsMDu-111" style="edgeStyle=none;rounded=0;orthogonalLoop=1;jettySize=auto;html=1;labelBackgroundColor=default;fontFamily=Sarabun;fontSource=https%3A%2F%2Ffonts.googleapis.com%2Fcss%3Ffamily%3DSarabun;fontSize=17;fontColor=default;endArrow=classic;endFill=1;strokeColor=default;fillColor=default;" edge="1" parent="WIyWlLk6GJQsqaUBKTNV-1" source="LF6EKqhV0Nr8-d3hsMDu-87" target="LF6EKqhV0Nr8-d3hsMDu-91">
          <mxGeometry relative="1" as="geometry" />
        </mxCell>
        <mxCell id="LF6EKqhV0Nr8-d3hsMDu-112" style="edgeStyle=none;rounded=0;orthogonalLoop=1;jettySize=auto;html=1;labelBackgroundColor=default;fontFamily=Sarabun;fontSource=https%3A%2F%2Ffonts.googleapis.com%2Fcss%3Ffamily%3DSarabun;fontSize=17;fontColor=default;endArrow=classic;endFill=1;strokeColor=default;fillColor=default;" edge="1" parent="WIyWlLk6GJQsqaUBKTNV-1" source="LF6EKqhV0Nr8-d3hsMDu-87" target="LF6EKqhV0Nr8-d3hsMDu-89">
          <mxGeometry relative="1" as="geometry" />
        </mxCell>
        <mxCell id="LF6EKqhV0Nr8-d3hsMDu-87" value="&lt;p class=&quot;MsoNormal&quot; style=&quot;margin: 0cm -1.45pt 0cm 0cm; font-size: 14pt; line-height: 12pt;&quot;&gt;&lt;/p&gt;&lt;div style=&quot;&quot;&gt;&lt;span style=&quot;font-size: 13pt;&quot;&gt;Planning&lt;/span&gt;&lt;/div&gt;&lt;p&gt;&lt;/p&gt;" style="ellipse;whiteSpace=wrap;html=1;labelBackgroundColor=default;fontFamily=Sarabun;fontSource=https%3A%2F%2Ffonts.googleapis.com%2Fcss%3Ffamily%3DSarabun;fontSize=17;fontColor=default;strokeColor=default;fillColor=default;align=center;verticalAlign=middle;" vertex="1" parent="WIyWlLk6GJQsqaUBKTNV-1">
          <mxGeometry x="477.5" y="735" width="130" height="130" as="geometry" />
        </mxCell>
        <mxCell id="LF6EKqhV0Nr8-d3hsMDu-107" style="edgeStyle=none;rounded=0;orthogonalLoop=1;jettySize=auto;html=1;entryX=0;entryY=1;entryDx=0;entryDy=0;labelBackgroundColor=default;fontFamily=Sarabun;fontSource=https%3A%2F%2Ffonts.googleapis.com%2Fcss%3Ffamily%3DSarabun;fontSize=17;fontColor=default;endArrow=classic;endFill=1;strokeColor=default;fillColor=default;" edge="1" parent="WIyWlLk6GJQsqaUBKTNV-1" source="LF6EKqhV0Nr8-d3hsMDu-88" target="LF6EKqhV0Nr8-d3hsMDu-87">
          <mxGeometry relative="1" as="geometry" />
        </mxCell>
        <mxCell id="LF6EKqhV0Nr8-d3hsMDu-108" style="edgeStyle=none;rounded=0;orthogonalLoop=1;jettySize=auto;html=1;labelBackgroundColor=default;fontFamily=Sarabun;fontSource=https%3A%2F%2Ffonts.googleapis.com%2Fcss%3Ffamily%3DSarabun;fontSize=17;fontColor=default;endArrow=classic;endFill=1;strokeColor=default;fillColor=default;" edge="1" parent="WIyWlLk6GJQsqaUBKTNV-1" source="LF6EKqhV0Nr8-d3hsMDu-88" target="LF6EKqhV0Nr8-d3hsMDu-89">
          <mxGeometry relative="1" as="geometry" />
        </mxCell>
        <mxCell id="LF6EKqhV0Nr8-d3hsMDu-110" style="edgeStyle=none;rounded=0;orthogonalLoop=1;jettySize=auto;html=1;entryX=0;entryY=0.5;entryDx=0;entryDy=0;labelBackgroundColor=default;fontFamily=Sarabun;fontSource=https%3A%2F%2Ffonts.googleapis.com%2Fcss%3Ffamily%3DSarabun;fontSize=17;fontColor=default;endArrow=classic;endFill=1;strokeColor=default;fillColor=default;" edge="1" parent="WIyWlLk6GJQsqaUBKTNV-1" source="LF6EKqhV0Nr8-d3hsMDu-88" target="LF6EKqhV0Nr8-d3hsMDu-91">
          <mxGeometry relative="1" as="geometry" />
        </mxCell>
        <mxCell id="LF6EKqhV0Nr8-d3hsMDu-127" style="edgeStyle=none;rounded=0;jumpStyle=sharp;jumpSize=9;orthogonalLoop=1;jettySize=auto;html=1;labelBackgroundColor=default;fontFamily=Sarabun;fontSource=https%3A%2F%2Ffonts.googleapis.com%2Fcss%3Ffamily%3DSarabun;fontSize=17;fontColor=default;endArrow=classic;endFill=1;strokeColor=default;fillColor=default;" edge="1" parent="WIyWlLk6GJQsqaUBKTNV-1">
          <mxGeometry relative="1" as="geometry">
            <mxPoint x="419.6379698936619" y="955.2909652471826" as="sourcePoint" />
            <mxPoint x="436.2823063783678" y="991.7449171163805" as="targetPoint" />
          </mxGeometry>
        </mxCell>
        <mxCell id="LF6EKqhV0Nr8-d3hsMDu-88" value="&lt;p class=&quot;MsoNormal&quot; style=&quot;margin: 0cm -1.45pt 0cm 0cm ; font-size: 14pt ; line-height: 12pt&quot;&gt;&lt;/p&gt;&lt;div&gt;&lt;p class=&quot;MsoNormal&quot; align=&quot;center&quot; style=&quot;margin: 0cm ; font-size: 14pt ; line-height: 12pt&quot;&gt;&lt;span lang=&quot;EN-US&quot; style=&quot;font-size: 13pt ; line-height: 1.2&quot;&gt;Data Collection&lt;/span&gt;&lt;span lang=&quot;TH&quot; style=&quot;font-size: 12pt&quot;&gt;&lt;/span&gt;&lt;/p&gt;&lt;/div&gt;&lt;p&gt;&lt;/p&gt;" style="ellipse;whiteSpace=wrap;html=1;aspect=fixed;labelBackgroundColor=default;fontFamily=Sarabun;fontSource=https%3A%2F%2Ffonts.googleapis.com%2Fcss%3Ffamily%3DSarabun;fontSize=17;fontColor=default;strokeColor=default;fillColor=default;align=center;verticalAlign=middle;" vertex="1" parent="WIyWlLk6GJQsqaUBKTNV-1">
          <mxGeometry x="320" y="835" width="130" height="130" as="geometry" />
        </mxCell>
        <mxCell id="LF6EKqhV0Nr8-d3hsMDu-117" style="edgeStyle=none;rounded=0;orthogonalLoop=1;jettySize=auto;html=1;labelBackgroundColor=default;fontFamily=Sarabun;fontSource=https%3A%2F%2Ffonts.googleapis.com%2Fcss%3Ffamily%3DSarabun;fontSize=17;fontColor=default;endArrow=classic;endFill=1;strokeColor=default;fillColor=default;dashed=1;" edge="1" parent="WIyWlLk6GJQsqaUBKTNV-1">
          <mxGeometry relative="1" as="geometry">
            <mxPoint x="663.2830237032395" y="991.1386034580282" as="sourcePoint" />
            <mxPoint x="676.219296436373" y="957.7717364500284" as="targetPoint" />
          </mxGeometry>
        </mxCell>
        <mxCell id="LF6EKqhV0Nr8-d3hsMDu-125" style="edgeStyle=none;rounded=0;jumpStyle=sharp;jumpSize=9;orthogonalLoop=1;jettySize=auto;html=1;labelBackgroundColor=default;fontFamily=Sarabun;fontSource=https%3A%2F%2Ffonts.googleapis.com%2Fcss%3Ffamily%3DSarabun;fontSize=17;fontColor=default;endArrow=classic;endFill=1;strokeColor=default;fillColor=default;" edge="1" parent="WIyWlLk6GJQsqaUBKTNV-1">
          <mxGeometry relative="1" as="geometry">
            <mxPoint x="581.459999999996" y="1049" as="sourcePoint" />
            <mxPoint x="520.0000000000039" y="1049" as="targetPoint" />
          </mxGeometry>
        </mxCell>
        <mxCell id="LF6EKqhV0Nr8-d3hsMDu-89" value="&lt;p class=&quot;MsoNormal&quot; style=&quot;margin: 0cm -1.45pt 0cm 0cm ; font-size: 14pt ; line-height: 12pt&quot;&gt;&lt;/p&gt;&lt;div&gt;&lt;p class=&quot;MsoNormal&quot; align=&quot;center&quot; style=&quot;margin: 0cm -3.4pt 0.0001pt -7.1pt ; font-size: 14pt ; line-height: 12pt&quot;&gt;&lt;span lang=&quot;EN-US&quot; style=&quot;font-size: 13pt ; line-height: 1.2&quot;&gt;Operation and management&lt;/span&gt;&lt;span lang=&quot;EN-US&quot; style=&quot;font-size: 13pt&quot;&gt;&lt;/span&gt;&lt;/p&gt;&lt;/div&gt;&lt;p&gt;&lt;/p&gt;" style="ellipse;whiteSpace=wrap;html=1;aspect=fixed;labelBackgroundColor=none;fontFamily=Sarabun;fontSource=https%3A%2F%2Ffonts.googleapis.com%2Fcss%3Ffamily%3DSarabun;fontSize=17;fontColor=default;strokeColor=default;fillColor=default;align=center;verticalAlign=middle;spacing=2;" vertex="1" parent="WIyWlLk6GJQsqaUBKTNV-1">
          <mxGeometry x="581.46" y="990" width="130" height="130" as="geometry" />
        </mxCell>
        <mxCell id="LF6EKqhV0Nr8-d3hsMDu-115" style="edgeStyle=none;rounded=0;orthogonalLoop=1;jettySize=auto;html=1;labelBackgroundColor=default;fontFamily=Sarabun;fontSource=https%3A%2F%2Ffonts.googleapis.com%2Fcss%3Ffamily%3DSarabun;fontSize=17;fontColor=default;endArrow=classic;endFill=1;strokeColor=default;fillColor=default;dashed=1;" edge="1" parent="WIyWlLk6GJQsqaUBKTNV-1" source="LF6EKqhV0Nr8-d3hsMDu-90" target="LF6EKqhV0Nr8-d3hsMDu-87">
          <mxGeometry relative="1" as="geometry" />
        </mxCell>
        <mxCell id="LF6EKqhV0Nr8-d3hsMDu-126" style="edgeStyle=none;rounded=0;jumpStyle=sharp;jumpSize=9;orthogonalLoop=1;jettySize=auto;html=1;labelBackgroundColor=default;fontFamily=Sarabun;fontSource=https%3A%2F%2Ffonts.googleapis.com%2Fcss%3Ffamily%3DSarabun;fontSize=17;fontColor=default;endArrow=classic;endFill=1;strokeColor=default;fillColor=default;" edge="1" parent="WIyWlLk6GJQsqaUBKTNV-1">
          <mxGeometry relative="1" as="geometry">
            <mxPoint x="520.0000000000039" y="1061" as="sourcePoint" />
            <mxPoint x="581.459999999996" y="1061" as="targetPoint" />
          </mxGeometry>
        </mxCell>
        <mxCell id="LF6EKqhV0Nr8-d3hsMDu-128" style="edgeStyle=none;rounded=0;jumpStyle=sharp;jumpSize=9;orthogonalLoop=1;jettySize=auto;html=1;labelBackgroundColor=default;fontFamily=Sarabun;fontSource=https%3A%2F%2Ffonts.googleapis.com%2Fcss%3Ffamily%3DSarabun;fontSize=17;fontColor=default;endArrow=classic;endFill=1;strokeColor=default;fillColor=default;" edge="1" parent="WIyWlLk6GJQsqaUBKTNV-1">
          <mxGeometry relative="1" as="geometry">
            <mxPoint x="422.36203010632516" y="998.7090347527885" as="sourcePoint" />
            <mxPoint x="405.7176936216065" y="962.2550828835631" as="targetPoint" />
          </mxGeometry>
        </mxCell>
        <mxCell id="LF6EKqhV0Nr8-d3hsMDu-90" value="&lt;p class=&quot;MsoNormal&quot; style=&quot;margin: 0cm -1.45pt 0cm 0cm ; font-size: 14pt ; line-height: 12pt&quot;&gt;&lt;/p&gt;&lt;div style=&quot;line-height: 1.2&quot;&gt;&lt;p class=&quot;MsoNormal&quot; align=&quot;center&quot; style=&quot;margin: 0cm -6.15pt 0.0001pt -7.1pt ; font-size: 14pt ; line-height: 11pt&quot;&gt;&lt;span lang=&quot;EN-US&quot; style=&quot;font-size: 13pt&quot;&gt;Evaluation/&lt;/span&gt;&lt;/p&gt;&lt;p class=&quot;MsoNormal&quot; align=&quot;center&quot; style=&quot;margin: 0cm -6.15pt 0.0001pt -7.1pt ; font-size: 14pt ; line-height: 11pt&quot;&gt;&lt;span lang=&quot;EN-US&quot; style=&quot;font-size: 13pt&quot;&gt;assessment&lt;/span&gt;&lt;/p&gt;&lt;/div&gt;&lt;p&gt;&lt;/p&gt;" style="ellipse;whiteSpace=wrap;html=1;aspect=fixed;labelBackgroundColor=default;fontFamily=Sarabun;fontSource=https%3A%2F%2Ffonts.googleapis.com%2Fcss%3Ffamily%3DSarabun;fontSize=17;fontColor=default;strokeColor=default;fillColor=default;align=center;verticalAlign=middle;" vertex="1" parent="WIyWlLk6GJQsqaUBKTNV-1">
          <mxGeometry x="390" y="990" width="130" height="130" as="geometry" />
        </mxCell>
        <mxCell id="LF6EKqhV0Nr8-d3hsMDu-121" style="edgeStyle=none;rounded=0;jumpStyle=sharp;jumpSize=9;orthogonalLoop=1;jettySize=auto;html=1;labelBackgroundColor=default;fontFamily=Sarabun;fontSource=https%3A%2F%2Ffonts.googleapis.com%2Fcss%3Ffamily%3DSarabun;fontSize=17;fontColor=default;endArrow=classic;endFill=1;strokeColor=default;fillColor=default;" edge="1" parent="WIyWlLk6GJQsqaUBKTNV-1">
          <mxGeometry relative="1" as="geometry">
            <mxPoint x="689.4569762967444" y="964.8613965420145" as="sourcePoint" />
            <mxPoint x="676.5207035636436" y="998.2282635499289" as="targetPoint" />
          </mxGeometry>
        </mxCell>
        <mxCell id="LF6EKqhV0Nr8-d3hsMDu-91" value="&lt;p class=&quot;MsoNormal&quot; style=&quot;margin: 0cm -1.45pt 0cm 0cm ; font-size: 14pt ; line-height: 12pt&quot;&gt;&lt;/p&gt;&lt;div&gt;&lt;p class=&quot;MsoNormal&quot; align=&quot;center&quot; style=&quot;margin: 0cm -6.95pt 0.0001pt -7.1pt ; font-size: 14pt ; line-height: 12pt&quot;&gt;&lt;span lang=&quot;EN-US&quot; style=&quot;font-size: 13pt ; line-height: 1.2&quot;&gt;Design and Construction&lt;/span&gt;&lt;/p&gt;&lt;/div&gt;&lt;p&gt;&lt;/p&gt;" style="ellipse;whiteSpace=wrap;html=1;aspect=fixed;labelBackgroundColor=none;fontFamily=Sarabun;fontSource=https%3A%2F%2Ffonts.googleapis.com%2Fcss%3Ffamily%3DSarabun;fontSize=17;fontColor=default;strokeColor=default;fillColor=default;align=center;verticalAlign=middle;" vertex="1" parent="WIyWlLk6GJQsqaUBKTNV-1">
          <mxGeometry x="640.28" y="835" width="130" height="130" as="geometry" />
        </mxCell>
        <mxCell id="LF6EKqhV0Nr8-d3hsMDu-131" value="&lt;p class=&quot;MsoNormal&quot; style=&quot;margin: 0cm ; font-size: 18px&quot;&gt;&lt;span lang=&quot;TH&quot;&gt;ความสัมพันธ์ทางตรงและทางอ้อมของขั้นตอน/ประเภท&lt;/span&gt;&lt;span lang=&quot;TH&quot;&gt;งานต่างๆ&lt;/span&gt;&lt;/p&gt;" style="text;html=1;align=center;verticalAlign=middle;resizable=0;points=[];autosize=1;strokeColor=none;fillColor=none;fontSize=17;fontFamily=Sarabun;fontColor=default;" vertex="1" parent="WIyWlLk6GJQsqaUBKTNV-1">
          <mxGeometry x="302.5" y="1120" width="480" height="30" as="geometry" />
        </mxCell>
        <mxCell id="LF6EKqhV0Nr8-d3hsMDu-132" value="&lt;p class=&quot;MsoNormal&quot; align=&quot;center&quot; style=&quot;margin: 0cm ; font-style: normal ; font-weight: normal ; letter-spacing: normal ; text-indent: 0px ; text-transform: none ; word-spacing: 0px ; text-decoration: none ; text-align: center&quot;&gt;&lt;span lang=&quot;TH&quot;&gt;ขั้นตอน/ประเภทการปฏิบัติงานด้านวิศวกรรมแหล่งน้ำ&lt;b&gt;&lt;span class=&quot;Apple-converted-space&quot;&gt;&amp;nbsp;&lt;/span&gt;&lt;/b&gt;(&lt;b&gt;ที่มา&lt;/b&gt;&lt;/span&gt;&lt;b&gt;&lt;span lang=&quot;EN-US&quot;&gt;:&lt;span class=&quot;Apple-converted-space&quot;&gt;&amp;nbsp;&lt;/span&gt;&lt;/span&gt;&lt;/b&gt;&lt;span lang=&quot;TH&quot;&gt;ชัยพันธุ์ รักวิจัย&lt;/span&gt;&lt;span lang=&quot;EN-US&quot;&gt;, 2540)&lt;font face=&quot;angsana new, serif&quot;&gt;&lt;b&gt;&lt;/b&gt;&lt;/font&gt;&lt;/span&gt;&lt;/p&gt;" style="text;whiteSpace=wrap;html=1;fontSize=20;fontFamily=Sarabun;fontColor=default;" vertex="1" parent="WIyWlLk6GJQsqaUBKTNV-1">
          <mxGeometry x="-620" y="1090" width="710" height="50" as="geometry" />
        </mxCell>
      </root>
    </mxGraphModel>
  </diagram>
</mxfile>
